<?xml version="1.0" standalone="no"?>
<!DOCTYPE svg PUBLIC "-//W3C//DTD SVG 1.1//EN" "http://www.w3.org/Graphics/SVG/1.1/DTD/svg11.dtd" >
<svg xmlns="http://www.w3.org/2000/svg">
<metadata></metadata>
<defs>
<font id="manksansitalic" horiz-adv-x="1527" >
<font-face units-per-em="2048" ascent="1638" descent="-410" />
<missing-glyph horiz-adv-x="567" />
<glyph horiz-adv-x="0" />
<glyph horiz-adv-x="682" />
<glyph horiz-adv-x="907" d="M139 1495q-35 -166 35 -265.5t238 -99.5q80 0 151.5 27t128 76t95.5 115.5t55 146.5q4 16 -13 16h-61l-20 -16q-12 -59 -40 -111.5t-69 -90.5t-93 -60.5t-116 -22.5q-63 0 -107 21.5t-69 60.5t-30 90.5t7 112.5l-12 16q-6 0 -19.5 1t-25.5 1t-22.5 -4t-12.5 -14z" />
<glyph horiz-adv-x="505" d="M102 1331q-12 -59 24 -104t95 -45q31 0 60.5 12t54 32.5t43 47t24.5 57.5q12 59 -22.5 104.5t-93.5 45.5q-31 0 -60.5 -12.5t-55.5 -33t-44 -47t-25 -57.5z" />
<glyph horiz-adv-x="653" d="M102 1257q-20 -98 30 -161.5t149 -63.5q47 0 92 17.5t80.5 47t61.5 70.5t36 90q20 96 -31 159t-147 63q-47 0 -91 -16.5t-81 -46.5t-62.5 -70.5t-36.5 -88.5zM188 1257q14 59 61.5 101.5t108.5 42.5t91 -42.5t16 -101.5h-2q-14 -63 -58.5 -104t-109.5 -41q-61 0 -90 43 t-17 102z" />
<glyph unicode="&#xa;" horiz-adv-x="804" d="M57 1145q0 -16 17 -17h37l12 7q10 10 45 43.5t81 81t97 98.5t94 96t72 76t31 35q2 12 -15 12h-71l-15 -6q-8 -10 -39.5 -44t-73.5 -80t-89 -98.5t-87 -96.5t-67 -74.5t-29 -32.5zM262 1145q0 -16 17 -17h34l13 7q10 10 45 43.5t81 81t98 98.5t95 96t73 76t30 35 q2 12 -15 12h-71l-15 -6q-8 -10 -40 -44t-73.5 -80t-89 -98.5t-87.5 -96.5t-67.5 -74.5t-27.5 -32.5z" />
<glyph horiz-adv-x="516" d="M94 -199q-16 -66 16.5 -110.5t100.5 -44.5q18 0 48 8t57.5 22.5t50 33.5t26.5 42q4 10 -10 17.5t-23 11.5l-20 -4q-39 -45 -92 -45q-39 0 -50.5 27.5t-2.5 62.5q4 18 20 43.5t37.5 52.5t43 49.5t38.5 38.5v-2l8 10l-25 13q-2 16 -24 16l-19 -8q-23 -23 -51 -51.5t-55 -59 t-47.5 -63.5t-26.5 -60z" />
<glyph horiz-adv-x="913" d="M139 1503q0 -4 13.5 -29.5t35 -62.5t46 -81t48 -83t40 -67.5t22.5 -36.5l10 -6h121l14 6q8 8 37 36.5t69 67.5t84 83t82 81t62.5 62.5t24.5 29.5q2 6 -3 10.5t-11 4.5h-39l-15 -7q-88 -78 -176 -156.5t-176 -156.5l-223 313l-10 7q-10 0 -31 1t-25 -16z" />
<glyph unicode="&#xd;" horiz-adv-x="292" d="M2 16l14 -16h56l18 16l201 938l-15 17h-55l-18 -17z" />
<glyph horiz-adv-x="1296" d="M-47 16q-4 -16 16 -16h70l14 6q18 20 83 90t159 172.5t207.5 226t230.5 250.5t226.5 247t194.5 214t137 151.5t52 59.5q4 16 -16 17h-67l-15 -7q-18 -20 -82.5 -89.5t-159 -172t-208 -226.5t-230 -251t-226.5 -246.5t-196 -214t-138 -152t-52 -59.5z" />
<glyph horiz-adv-x="991" d="M106 16l15 -16h51l18 16l181 844h342l20 17l8 45l-12 16h-342l47 219q12 57 33.5 108.5t56.5 88.5t83 58.5t114 21.5q63 0 131 -21.5t115 -56.5l28 14l13 53l-7 15q-53 29 -126.5 49t-139.5 20q-133 0 -208.5 -52t-118.5 -135t-63.5 -183.5t-41.5 -198.5h-145l-21 -16 l-8 -45l12 -17h146zM647 16l15 -16h51l18 16l201 938l-12 17h-52l-20 -17z" />
<glyph horiz-adv-x="1021" d="M109 16l14 -16h51l19 16l180 844h342l20 17l8 45l-14 16h-342l47 219q12 57 35 108.5t57.5 88.5t83.5 58.5t115 21.5t125 -17.5t119 -40.5l-291 -1360l14 -16h51l19 16l299 1399l-10 15q-63 33 -149.5 55t-164.5 22q-133 0 -209.5 -52t-118.5 -134t-62.5 -183.5 t-41.5 -199.5h-147l-21 -16l-8 -45l14 -17h146z" />
<glyph horiz-adv-x="450" d="M102.5 999.5q-10.5 -51.5 17 -87t79.5 -35.5q51 0 95 35.5t54 86.5t-17.5 87t-78.5 36t-95 -35.5t-54.5 -87zM235.5 954.5q4.5 16.5 17.5 27.5t30 11q16 0 25 -11.5t5 -27.5t-17 -27.5t-30 -11.5q-16 0 -25.5 11.5t-5 28z" />
<glyph horiz-adv-x="1034" d="M-16 -168l6 -12q33 -20 77 -30.5t87 -10.5q96 0 166.5 35.5t121 95t82 136.5t49.5 161l258 1220l-14 17h-309l-21 -17l-10 -47l17 -16l239 -2q-63 -293 -124.5 -583t-123.5 -582q-12 -61 -35.5 -122t-61.5 -110t-92 -78.5t-128 -29.5q-31 0 -51.5 7t-38 17t-33.5 21.5 t-39 19.5q-16 0 -20 -18zM131 -260q-25 -129 26.5 -206t186.5 -77q129 0 216 79t118 204l-10 12h-47l-17 -12q-20 -92 -84.5 -156.5t-163.5 -64.5q-100 0 -137 63.5t-16 157.5l-8 12h-45zM250 999.5q-10 -51.5 17.5 -87t78.5 -35.5t95.5 35.5t54.5 86.5t-17.5 87t-79.5 36 q-51 0 -95 -35.5t-54 -87zM383 954.5q4 16.5 17.5 27.5t29.5 11t25.5 -11.5t5.5 -27.5t-17.5 -27.5t-29.5 -11.5t-25.5 11.5t-5.5 28zM803 999.5q-10 -51.5 17.5 -87t78.5 -35.5t95.5 35.5t54.5 86.5t-17.5 87t-79.5 36q-51 0 -95 -35.5t-54 -87zM936 954.5 q4 16.5 17.5 27.5t29.5 11t25.5 -11.5t5.5 -27.5t-17.5 -27.5t-29.5 -11.5t-25.5 11.5t-5.5 28z" />
<glyph horiz-adv-x="1024" />
<glyph horiz-adv-x="1024" />
<glyph unicode=" "  horiz-adv-x="567" />
<glyph unicode="&#x09;" horiz-adv-x="567" />
<glyph unicode="&#xa0;" horiz-adv-x="567" />
<glyph unicode="!" horiz-adv-x="303" d="M-47 16l8 -14h74l16 14l15 74l-9 14h-73l-17 -14zM-4 205l10 -17h60l20 17l260 1225l-12 16h-60l-18 -16z" />
<glyph unicode="&#x22;" horiz-adv-x="464" d="M66 1098l16 -17h37l18 17l86 338q6 16 -12 16h-53l-19 -16zM240 1098l14 -17h37l18 17l90 338q4 16 -16 16h-53l-17 -16z" />
<glyph unicode="#" horiz-adv-x="1136" d="M55 584l15 -15h196l-100 -338q0 -4 3 -10t9 -6h51l19 12l106 342h287l-102 -338q0 -4 3 -10t9 -6h53l19 12q27 86 51 171t51 171h219l19 15l12 55l-12 16h-209q23 76 44 151t44 150h209l20 17l10 55l-12 14h-201l103 328q4 18 -13 19h-53l-20 -15l-99 -332h-288l98 328 q4 18 -12 19h-54l-20 -15l-98 -332h-217l-21 -14l-10 -55l12 -17h207q-23 -76 -44.5 -150.5t-43.5 -150.5h-207l-20 -16zM381 655q23 76 44 151t44 150h289q-23 -76 -44.5 -150.5t-43.5 -150.5h-289z" />
<glyph unicode="$" horiz-adv-x="978" d="M-20 133l6 -16q66 -27 143.5 -40.5t153.5 -15.5l-45 -157q-4 -16 12 -17q6 0 17.5 -1t22.5 0t19 4.5t10 13.5q10 41 13.5 78.5t11.5 78.5q80 0 154.5 16.5t137 55.5t107.5 101.5t64 152.5q25 115 -10 183.5t-99.5 111.5t-145.5 72.5t-147.5 65.5t-104.5 91.5t-17 149.5 q14 70 45.5 116t74.5 73.5t98.5 38.5t119.5 11q61 0 120.5 -8t112.5 -26q14 -4 28.5 -11.5t28.5 -11.5l11 -2q6 0 10 6t6 10l12 62l-8 16q-59 23 -126.5 33t-133.5 12l45 138q4 18 -12 18h-49l-21 -16q-8 -35 -13 -70t-14 -70q-158 0 -271.5 -74.5t-149.5 -244.5 q-25 -115 10 -183.5t100.5 -111.5t145 -71.5t146.5 -64.5t104.5 -91.5t17.5 -151.5q-14 -72 -52 -119t-90.5 -74.5t-114 -40t-120.5 -12.5q-68 0 -133.5 11.5t-122.5 35.5q-16 6 -32.5 18.5t-32.5 16.5q-2 2 -11 2q-6 0 -11 -6t-5 -10z" />
<glyph unicode="%" horiz-adv-x="1206" d="M-35 16q-4 -16 12 -16h64l14 8q16 20 75.5 91t145.5 174.5t190.5 229.5t211 255t207 249.5t179.5 216t126 154t47 60.5q4 14 -12 14h-62l-14 -8q-16 -20 -75.5 -91t-145.5 -174.5t-190.5 -229.5t-212 -254t-208 -249.5t-178.5 -216t-126 -153t-48 -60.5zM201 1182 q-27 -123 23 -202t177 -79t209 80t109 201q27 129 -20.5 201.5t-180.5 72.5t-212 -72.5t-105 -201.5zM283 1182q18 86 72.5 142t146.5 56t121.5 -56t13.5 -142q-18 -84 -73.5 -144.5t-147.5 -60.5q-90 0 -121 60.5t-12 144.5zM489 268q-27 -123 23.5 -201.5t177.5 -78.5 t209 79.5t109 200.5q29 129 -18.5 203t-180.5 74q-135 0 -213 -74t-107 -203zM571 268q18 86 73.5 143.5t148.5 57.5q92 0 121.5 -57.5t11.5 -143.5q-16 -82 -72.5 -143.5t-146.5 -61.5t-122 60.5t-14 144.5z" />
<glyph unicode="&#x26;" horiz-adv-x="1284" d="M43 442q-47 -215 48 -334.5t310 -119.5q115 0 227.5 50t205.5 140q23 -45 48 -90t54 -86l76 -2q16 0 20 14q0 2 -19.5 36t-44 75t-46 78t-25.5 47q27 37 58.5 86t60 101t50.5 102.5t32 91.5q4 16 -7.5 22t-23.5 6q-14 0 -28.5 -7t-18.5 -23q-16 -80 -60.5 -172 t-99.5 -162q-82 139 -143.5 294.5t-120.5 307.5q53 25 113.5 54.5t115 68.5t94 88t54.5 113q23 106 -31.5 170.5t-159.5 64.5q-59 0 -114.5 -15.5t-101.5 -47t-78.5 -78.5t-45.5 -111q-16 -76 -0.5 -144.5t37.5 -131.5q-80 -41 -150.5 -89t-128 -107.5t-98.5 -131.5 t-59 -158zM125 289.5q-10 68.5 8 152.5q14 68 50 131.5t86 117.5t111.5 96t127.5 71q63 -160 136 -315t153 -305q-78 -80 -178.5 -127.5t-200.5 -47.5q-86 0 -147.5 28t-98.5 79t-47 119.5zM530 1204q18 86 87 131t149 45q68 0 102.5 -46.5t20.5 -112.5q-10 -47 -47 -86 t-84 -71t-99.5 -56.5t-91.5 -42.5q-23 51 -36 114.5t-1 124.5z" />
<glyph unicode="'" horiz-adv-x="292" d="M66 1098l16 -17h37l18 17l90 338q4 16 -16 16h-53l-19 -16z" />
<glyph unicode="(" horiz-adv-x="503" d="M74 365.5q6 -105.5 27.5 -205t60.5 -176.5l22 -4q10 4 32 16t26 22q0 4 -2 5l2 4q-4 41 -20.5 84t-26.5 84q-29 139 -30 285.5t32 297.5q29 141 90 279.5t143 271.5q29 47 67 94t60 95l2 4q2 0 2 4q2 6 -3 11l-11 11t-14.5 10.5t-12.5 6.5l-22 -4q-72 -78 -135.5 -175.5 t-113.5 -201t-87 -208t-57.5 -198.5t-28.5 -200.5t-2 -212z" />
<glyph unicode=")" horiz-adv-x="503" d="M-57 18q-2 -6 3 -11l11 -11t14.5 -10t12.5 -6l22 4q72 78 135.5 177t115.5 204.5t89 212t57 200.5t27.5 198.5t-0.5 208t-29.5 201t-60.5 175.5l-23 4q-8 -4 -29.5 -16.5t-25.5 -22.5q0 -4 -2 -8q6 -47 23.5 -95.5t27.5 -93.5q25 -133 27 -271t-27 -280 q-33 -152 -97 -298t-151 -285q-25 -41 -61.5 -84t-56.5 -84q-2 -4 -2 -9z" />
<glyph unicode="*" horiz-adv-x="929" d="M74 1030l28 -76l11 -4q86 43 164.5 88t158.5 95q-14 -51 -31.5 -103.5t-27.5 -101.5l-29 -146l8 -10h74l12 10l31 146q10 49 12 101t9 101q51 -49 109.5 -96t123.5 -82l12 4l56 68l-2 10q-66 45 -132.5 79t-138.5 69q86 35 169 70.5t167 76.5l6 12l-24 66l-13 4 q-84 -41 -157.5 -85t-153.5 -93q14 47 34.5 101.5t31.5 101.5l24 118l-8 9h-74l-12 -9l-25 -118q-10 -51 -17 -103.5t-13 -103.5q-57 49 -119 97t-129 85l-12 -2l-56 -68l2 -12q68 -43 139.5 -79t145.5 -68q-86 -29 -175 -63t-171 -79z" />
<glyph unicode="+" horiz-adv-x="835" d="M98 741l11 -16l262 2l-58 -262l13 -16h49l20 16l54 262l262 -2l18 16l8 47l-10 17l-262 -2l57 262l-12 16h-49l-21 -16l-53 -262l-262 2l-19 -17z" />
<glyph unicode="," horiz-adv-x="407" d="M70 -92q-4 -16 16 -17h37l14 11q4 6 20.5 31.5t39 59.5t47 71.5t45 69.5t35 54.5t14.5 24.5q2 12 -14 12h-72l-19 -10q-4 -6 -16 -30.5t-30.5 -58.5t-39 -72t-38 -69.5t-28.5 -53t-11 -23.5z" />
<glyph unicode="-" horiz-adv-x="641" d="M98 586l15 -17h401l21 17l8 47l-15 16h-401l-21 -16z" />
<glyph unicode="." horiz-adv-x="479" d="M92 4l14 -16h95l20 16l21 98l-15 17h-94l-20 -17z" />
<glyph unicode="/" horiz-adv-x="817" d="M-47 16q-4 -16 14 -16h62l16 10q10 18 51 89t100.5 174.5t132 228.5t146.5 253t143.5 248.5t124 215t88 152t33.5 59.5q4 16 -14 16h-59l-17 -10q-10 -18 -51 -89t-100.5 -173.5t-132 -227.5t-147.5 -254t-144.5 -249.5t-124 -215t-88 -152t-33.5 -59.5z" />
<glyph unicode="0" horiz-adv-x="1267" d="M78.5 474q1.5 -130 41.5 -238.5t126 -178t233 -69.5q141 0 257 70.5t204 180t145 239.5t82 249q16 80 21.5 165t-4.5 166t-38 153.5t-75 127t-116.5 86t-166.5 31.5q-94 0 -177 -31.5t-153.5 -86t-128 -127t-102.5 -153.5t-75.5 -166t-47.5 -165q-27 -123 -25.5 -253z M174 438.5q-6 73.5 0 148.5t21 140q20 96 68 211t122 213t171 163.5t218 65.5q119 0 188.5 -65.5t102.5 -163.5t33 -213q-1 -115 -21 -211h-2q-23 -98 -70 -215t-119.5 -216t-171 -166t-220.5 -67q-82 0 -140.5 31t-96.5 83t-57.5 120t-25.5 141.5z" />
<glyph unicode="1" horiz-adv-x="808" d="M80 14l14 -16h443l18 16l10 47l-12 17h-174l289 1358l-15 16h-59l-354 -139l-13 -15q-2 -4 -5 -13t-5 -19.5t-1 -18.5t7 -8q8 0 55.5 18.5t104.5 41t109.5 44t68.5 27.5l-274 -1292h-176l-21 -17z" />
<glyph unicode="2" horiz-adv-x="1009" d="M-49 16l14 -16h725h47l19 16l63 299l-12 17h-47l-21 -19l-47 -227q-72 -4 -141.5 -7t-138.5 -3q-84 0 -166 1t-166 1q61 61 144 137t174 161t181.5 175t166 181t130 179t70.5 168q23 104 12.5 176t-51.5 116t-112.5 62.5t-169.5 18.5q-74 0 -153 -13.5t-153 -31.5 l-16 -16q0 -4 -4 -16.5t-6 -26t-2 -23.5t6 -10q14 0 48 9t77 19.5t91 19.5t93 9q147 0 216 -67.5t36 -225.5q-16 -72 -71.5 -158.5t-135.5 -180t-175 -187.5t-188 -180t-178 -162t-145 -129z" />
<glyph unicode="3" horiz-adv-x="968" d="M-41 45l10 -16q66 -18 139.5 -29.5t149.5 -11.5q90 0 178 25.5t161 75.5t125 125t73 173q16 76 2.5 137.5t-50 107.5t-92 78.5t-118.5 51.5q51 16 111.5 51t112.5 82t91 100.5t49 106.5q18 90 5 156.5t-54 110.5t-106.5 65.5t-151.5 21.5q-68 0 -140.5 -11t-144.5 -32 l-16 -16q0 -6 -4 -20.5t-7 -30t-2 -26.5t7 -11q4 0 33.5 11t71.5 23.5t91 23.5t97 11q127 0 195.5 -71.5t39.5 -204.5q-14 -70 -63.5 -127t-114 -97t-138 -62.5t-137.5 -22.5l-18 -17l-10 -47l14 -16q74 0 144.5 -19.5t124 -59.5t80 -101.5t8.5 -145.5q-16 -78 -58.5 -137.5 t-102 -100t-130 -62t-142.5 -21.5q-43 0 -90 11t-87 23.5t-68.5 23.5t-34.5 11t-11.5 -6t-7.5 -10z" />
<glyph unicode="4" horiz-adv-x="1202" d="M49 473l14 -16h652l-94 -441l10 -16h57l21 16l94 441h223l21 16l8 47l-15 17h-223l193 903l-13 16h-59l-14 -6l-867 -930zM176 537q180 197 360.5 388t360.5 388l-168 -776h-553z" />
<glyph unicode="5" horiz-adv-x="944" d="M-41 41l10 -16q59 -16 124 -26.5t130 -10.5q94 0 184.5 27.5t165 79.5t128 130t75.5 178q45 217 -40 327t-304 110q-80 0 -166 -6q35 133 69 265t66 265q78 2 157 3t159 1q51 0 101 -1t100 -3q14 4 18 16q2 8 5 19.5t4 22t-1 18.5t-12 12q-147 -10 -292.5 -9t-293.5 -1 l-18 -17l-168 -665q-6 -16 14 -17q59 0 120.5 9.5t123.5 9.5q170 0 236.5 -96.5t31.5 -262.5q-18 -82 -61 -145t-103.5 -106t-133.5 -66t-150 -23q-41 0 -81 10.5t-74 21.5t-58.5 21.5t-32.5 10.5q-6 0 -11.5 -6t-7.5 -10z" />
<glyph unicode="6" horiz-adv-x="1120" d="M51 366q2 -106 39 -190t111.5 -136t197.5 -52q106 0 198.5 31.5t165.5 91t124 144.5t74 194q45 215 -35 323.5t-295 108.5q-109 0 -222.5 -48.5t-209.5 -119.5q37 115 109.5 231.5t171 210.5t216 153.5t246.5 59.5q16 0 32.5 -1t33.5 -3q4 2 11 6t9 10l10 54l-10 16 l-67 2q-72 2 -145 -19.5t-140 -52.5q-129 -59 -229.5 -145t-174 -190.5t-124 -223.5t-76.5 -243q-23 -106 -21 -212zM147.5 409.5q-2.5 90.5 14.5 168.5l6 22q6 2 11 6t11 8q92 78 201 131.5t221 53.5q170 0 231.5 -92t26.5 -258q-18 -84 -59 -155t-100.5 -122t-134 -80 t-160.5 -29q-94 0 -151.5 51.5t-86 128t-31 167z" />
<glyph unicode="7" horiz-adv-x="1001" d="M131 12q-2 -6 4 -9t10 -3h58l14 10l821 1364l11 56l-13 16q-381 -4 -762 0l-14 -6l-8 -13l-51 -237l14 -16h47l21 18l34 170q160 8 316 8h315q-12 -20 -53 -88t-100.5 -166t-132 -217t-145.5 -240.5t-142.5 -236.5t-122.5 -205t-87 -145.5t-34 -59.5z" />
<glyph unicode="8" horiz-adv-x="1124" d="M29.5 215q19.5 -78 71 -128t130 -74.5t177.5 -24.5q96 0 185 24.5t161.5 74.5t124 128t73.5 182q29 129 -9 232.5t-161 142.5q49 25 94.5 62.5t82 83t63.5 95.5t37 99q20 96 1.5 161.5t-66.5 106.5t-119.5 58.5t-157.5 17.5q-84 0 -163 -17.5t-144.5 -58.5t-112.5 -106.5 t-68 -161.5q-23 -117 9 -206t135 -132q-59 -25 -114.5 -63.5t-101.5 -89t-79 -107.5t-45 -117q-23 -104 -3.5 -182zM119.5 250.5q-15.5 62.5 3.5 146.5q18 82 58 144.5t98.5 105.5t129 65.5t150.5 22.5q76 0 140.5 -22.5t106.5 -65.5t58 -105.5t-2 -144.5 q-18 -84 -58 -146.5t-98.5 -103.5t-131 -61t-152.5 -20t-143.5 20t-103.5 61t-55.5 103.5zM317.5 976q-14.5 56 1.5 136q16 74 52.5 125t87.5 83t113.5 46t129.5 14q68 0 124.5 -14t93 -46t51 -83t-1.5 -125h-2q-33 -154 -119 -227.5t-246 -73.5q-74 0 -133 17.5t-98 54.5 t-53.5 93z" />
<glyph unicode="9" horiz-adv-x="1120" d="M100 12l9 -16q45 -12 90 -16.5t92 -4.5q121 0 219 45.5t177 121t140.5 173t107.5 204t77 213t51 198.5q25 117 18.5 213t-49.5 165.5t-123 108.5t-202 39q-100 0 -189.5 -32.5t-161 -92t-122 -142.5t-70.5 -181q-18 -92 -11 -175t43.5 -144.5t103.5 -97.5t167 -36 q111 0 227.5 43t220.5 109q-31 -102 -83 -216t-125.5 -209.5t-173 -159t-224.5 -63.5q-47 0 -89 13.5t-83 13.5q-8 0 -15 -3t-9 -13zM244 869.5q-4 66.5 10 138.5q16 78 57 145.5t98.5 118.5t129 79.5t151.5 28.5q104 0 169 -34.5t96.5 -96t34.5 -143.5t-17 -176 q-6 -29 -12.5 -58.5t-14.5 -58.5l-10 -4q-27 -10 -49.5 -28.5t-46.5 -32.5q-84 -47 -174.5 -79t-180.5 -32q-80 0 -131 30.5t-78.5 83t-31.5 119z" />
<glyph unicode=":" horiz-adv-x="333" d="M25 4l14 -16h94l21 16l22 109l-14 16h-94l-21 -16zM160 643l14 -16h94l21 16l20 98l-14 17h-94l-21 -17z" />
<glyph unicode=";" horiz-adv-x="421" d="M14 -92q-4 -16 15 -17h37l14 11q4 6 20.5 31.5t39 59.5t47 71.5t45 69.5t35 54.5t14.5 24.5q2 12 -13 12h-71l-19 -10q-4 -6 -17.5 -30.5t-31.5 -58.5t-38.5 -72t-37 -69.5t-28 -53t-11.5 -23.5zM256 643l14 -16h97l20 16l21 98l-15 17h-96l-21 -17z" />
<glyph unicode="&#x3c;" horiz-adv-x="862" d="M100 756l6 -15q10 -8 53.5 -37.5t100.5 -69.5t121.5 -83l120 -80t94.5 -61.5t43 -24.5t12 7t16.5 15.5t15.5 16.5t7 12q2 10 -4 17q-49 39 -109.5 79.5t-124 80.5t-127 78t-116.5 73q16 8 67.5 34.5t120 61.5t144 74t140 72.5t105.5 57.5t43 28q2 6 -5 23.5t-11 23.5 q-6 6 -12 6t-54.5 -23.5t-119 -60.5t-153.5 -81t-157.5 -83t-130 -68.5t-69.5 -37.5l-13 -15z" />
<glyph unicode="=" horiz-adv-x="835" d="M61 575l13 -16h602l16 16l10 50l-10 16h-602l-18 -16zM133 905l10 -16h602l19 16l10 49l-12 17h-602l-17 -17z" />
<glyph unicode="&#x3e;" horiz-adv-x="862" d="M33 438q0 -4 3 -12t7 -17.5t10 -16.5t10 -7t53.5 24.5t120 61.5t153.5 80t158 83t130 69.5t70 37.5l10 15l4 20l-4 15q-12 8 -55.5 37.5t-100.5 68.5t-122.5 83t-121 81t-94.5 60.5t-43 23.5q-6 0 -12 -6t-20.5 -23.5t-16.5 -23.5q-2 -4 4 -15q111 -86 236 -160.5 t241 -152.5q-16 -8 -68.5 -33.5t-121 -60.5t-144 -74t-139 -73t-105.5 -57.5t-42 -27.5z" />
<glyph unicode="?" horiz-adv-x="944" d="M119 16l10 -14h74l14 14l16 74l-10 14h-73l-15 -14zM164 205l12 -17q6 0 19.5 -1t27.5 -1t25.5 4.5t13.5 14.5q14 66 24.5 132t20.5 132q80 35 176.5 90t183.5 126t151.5 153t82.5 170q20 98 10 181t-51 142.5t-113.5 92t-175.5 32.5q-35 0 -75.5 -4t-83.5 -11t-84 -20.5 t-76 -31.5l-10 -15l-6.5 -19.5t-6.5 -26.5t-1 -24.5t10 -11.5q4 0 35.5 13.5t77.5 31t100.5 30.5t105.5 13q82 0 138.5 -28.5t87 -79.5t37.5 -119t-9 -145q-18 -86 -80.5 -162t-145.5 -137.5t-175.5 -108.5t-167.5 -74l-15 -14z" />
<glyph unicode="@" horiz-adv-x="1427" d="M91 111q18 -115 79 -196t165.5 -124t250.5 -43l12 14q0 4 4 17.5t6 27t0 23.5t-12 6q-123 0 -211 38t-139 107.5t-65.5 168t12.5 221.5q25 115 77 213t129.5 168.5t178 110.5t221.5 40q55 0 113.5 -12t104.5 -40t70.5 -73t10.5 -112l-11 -54q-47 10 -94 17.5t-96 7.5 q-84 0 -168 -14.5t-156.5 -52.5t-127 -102.5t-74.5 -162.5q-29 -137 29.5 -225t199.5 -88q106 0 209.5 44t187.5 134l-34 -176l14 -17h43l16 17l144 672q18 88 -7.5 149.5t-81 98t-129 53t-149.5 16.5q-139 0 -257 -44t-208 -125t-152.5 -193.5t-91.5 -249.5 q-31 -145 -13 -260zM459 305q16 78 60 128t102.5 79t127 39t134.5 10q49 0 95 -10.5t89 -26.5h-2q-18 -92 -50 -174t-84 -143.5t-129 -97t-186 -35.5q-102 0 -141 66.5t-16 164.5z" />
<glyph unicode="A" horiz-adv-x="1329" d="M-49 12q-2 -6 5 -9t11 -3h58l18 10q80 141 159 279.5t160 279.5h541l82 -559l14 -10q3 0 15 -1q6 0 12 -1q8 0 14 1q14 1 23.5 4t11.5 9q0 6 -6 56.5t-16.5 125t-23.5 161.5t-25.5 166t-21.5 140.5t-11 81.5l-94 693l-15 10h-78l-16 -10q-29 -51 -80 -139.5t-113.5 -198 t-133 -232.5t-140.5 -243.5t-133.5 -230t-111.5 -193.5t-76 -135zM406 649l395 686l94 -686h-489z" />
<glyph unicode="B" horiz-adv-x="927" d="M-47 16l14 -16q68 0 134.5 -6t136.5 -6q94 0 177 20.5t150.5 66.5t114.5 116.5t70 173.5q11 54 11 108v9q-1 58 -19.5 106.5t-54.5 86.5t-93 56q57 20 105.5 56t85 82t61.5 98.5t37 105.5q15 67 15 122q0 30 -4 55q-12 73 -55.5 117t-117.5 64.5t-174 20.5 q-133 0 -275 -6l-18 -16zM51 72l131 616q53 0 108.5 1t108.5 1q152 0 225 -84q50 -58 50 -151q0 -42 -10 -90q-18 -84 -55.5 -142.5t-89.5 -94.5t-119.5 -51.5t-147.5 -15.5q-51 0 -101.5 3.5t-99.5 7.5zM199 764l129 608l102 4t102 2q76 0 132.5 -17.5t92.5 -55t46 -95.5 q4 -22 4 -47q0 -41 -10 -90h-2q-33 -150 -133.5 -229.5t-247.5 -79.5h-215z" />
<glyph unicode="C" horiz-adv-x="1366" d="M82 431q14 -138 78.5 -236.5t183.5 -152.5t295 -54q49 0 110.5 6t126 17.5t127 27.5t111.5 37l12 14q2 4 5.5 15.5t5.5 23.5t1 21.5t-8 9.5q-6 0 -12 -2q-119 -35 -230.5 -65t-232.5 -30q-152 0 -254 51.5t-157.5 142.5t-66.5 214q-3 32 -3 66q0 95 23 200 q33 152 92 271.5t149 202.5t213 126t283 43q113 0 204 -21.5t189 -58.5q4 -2 6 -1t6 1q12 0 17 15l12 63l-8 13q-92 41 -196.5 53t-213.5 12q-360 0 -565 -185.5t-279 -533.5q-27 -123 -27 -230q-1 -39 3 -76z" />
<glyph unicode="D" horiz-adv-x="1380" d="M-47 20l12 -16q106 -4 211 -10t213 -6q178 0 325.5 51t261.5 148.5t191.5 235.5t114.5 314q27 127 28 230q0 51 -8 97q-20 136 -99 222t-213 126t-320 40q-100 0 -199.5 -3t-200.5 -3l-16 -16zM55 82l271 1278q84 8 164.5 10t162.5 2q166 0 284 -36t186.5 -112.5 t86.5 -197.5q6 -40 7 -86q0 -91 -25 -203q-33 -152 -100.5 -275.5t-168 -211.5t-231.5 -136t-286 -48q-90 0 -177.5 3t-173.5 13z" />
<glyph unicode="E" horiz-adv-x="888" d="M45 16l12 -16q164 0 325 -1t325 -5l18 16q2 8 6 21.5t6 27t0 22.5t-12 9q-70 0 -140.5 -5t-140.5 -5h-141q-39 0 -78 1t-78 1l134 629h297q8 0 38.5 -2t63.5 -2q35 0 62.5 3t31.5 15l10 55l-12 17l-475 -6l123 575h297q66 0 127 -4t127 -4q16 0 20 16l13 56l-13 16h-626 l-19 -16q-147 -707 -301 -1414z" />
<glyph unicode="F" horiz-adv-x="833" d="M-47 16l10 -16h55l21 16l143 680l316 4q6 0 31.5 -3t55 -5t53.5 1t26 14l6 18t6 23.5t0 20.5t-12 9h-463l123 584l272 2h63h97q49 0 96 -4l18 16l11 54l-11 16h-600l-18 -16z" />
<glyph unicode="G" horiz-adv-x="1361" d="M82 431q14 -138 78.5 -236.5t184.5 -152.5t296 -54q47 0 108.5 6t125 17.5t126 26.5t111.5 36l12 14l133 625l-14 16h-401l-21 -16l-10 -47l14 -17h332l-108 -514q-98 -31 -196.5 -51.5t-197.5 -20.5q-154 0 -256 51.5t-157.5 142.5t-65.5 214q-2 30 -2 61q0 97 23 205 q31 152 91 270.5t151 201.5t215 127t282 44q115 0 205 -21.5t190 -58.5q4 -2 5 -1t5 1q12 0 17 15l12 63l-10 13q-92 41 -195.5 53t-214.5 12q-358 0 -564 -186.5t-280 -532.5q-27 -123 -27 -230q0 -39 3 -76z" />
<glyph unicode="H" horiz-adv-x="1325" d="M-47 16l14 -16h53l21 16l152 715h946l-152 -715l12 -16h54l20 16l299 1414l-14 16h-53l-21 -16l-131 -619h-946l131 619l-12 16h-54l-20 -16z" />
<glyph unicode="I" horiz-adv-x="638" d="M-47 14l12 -16h402l20 16l8 47l-12 17h-156l287 1352l-12 16h-56l-20 -16l-287 -1352h-157l-21 -17z" />
<glyph unicode="J" horiz-adv-x="727" d="M-176 -168l6 -12q33 -20 77 -30.5t87 -10.5q96 0 166.5 35.5t121 95t82 136.5t50.5 161l260 1220l-17 17h-309l-18 -17l-11 -47l15 -16l239 -2q-63 -293 -124.5 -583t-122.5 -582q-12 -61 -36 -122t-60.5 -110t-91 -78.5t-128.5 -29.5q-31 0 -51 7t-37.5 17t-35 21.5 t-40.5 19.5q-12 0 -20 -18z" />
<glyph unicode="K" horiz-adv-x="964" d="M-47 16l14 -16h56l20 16l141 664l428 -674l11 -6q17 0 47 -2h5q26 0 36 16q0 2 -30 52.5t-77 125t-102.5 162.5t-106.5 168t-89 139.5t-48 77.5q10 10 46 45t86 85.5t111.5 110.5t124 121.5t122 120t104.5 104.5t73.5 75t28.5 31q0 14 -14 14h-72l-12 -6l-649 -654 l135 644l-14 16h-56l-20 -16z" />
<glyph unicode="L" horiz-adv-x="864" d="M-47 16l10 -16h627l20 16q0 6 4 18t6 24q1 6 1.5 11t-1.5 10q-2 9 -12 9q-63 0 -126.5 -4t-127.5 -4h-301l287 1350l-12 16h-58l-18 -16z" />
<glyph unicode="M" horiz-adv-x="1677" d="M-47 16l14 -16h53l21 16q66 311 130.5 621.5t129.5 622.5q74 -317 160 -627.5t174 -624.5l10 -8h43l17 8q227 317 451 631.5t454 632.5l-273 -1256l15 -16h53l20 16l299 1414l-14 16h-63l-17 -8l-938 -1325l-344 1323l-12 10h-64l-20 -16z" />
<glyph unicode="N" horiz-adv-x="1306" d="M-61 16l14 -16h53l21 16q66 324 132 641.5t136 640.5q162 -328 327.5 -648t333.5 -644l11 -6h53l20 16l299 1414l-14 16h-57l-21 -16l-264 -1285q-160 330 -324.5 650.5t-332.5 644.5l-11 6h-57l-20 -16z" />
<glyph unicode="O" d="M82 441q12 -136 73.5 -237.5t173 -158.5t281.5 -57q166 0 302.5 59t239.5 160.5t174 237.5t104 292q27 126 27 234q-1 32 -3 63q-10 133 -71.5 226.5t-176 144.5t-286.5 51t-307.5 -51t-237 -144.5t-168 -226.5t-101.5 -297q-26 -120 -26 -227q-1 -35 2 -69zM177 482 q-2 29 -2 58q0 95 22 197q31 141 87 259t144 204t206 133t271 47q152 0 250 -47t149.5 -133t58.5 -204q1 -22 1 -44q0 -100 -25 -215h-2q-29 -133 -88 -255t-149 -215t-209 -148.5t-266 -55.5q-145 0 -241.5 55.5t-147 148.5t-59.5 215z" />
<glyph unicode="P" horiz-adv-x="880" d="M45 16l14 -16h56l20 16l135 633q66 -14 148 -14q96 0 183 30.5t155.5 88t118 136.5t69.5 177q14 67 14 120q0 32 -4 59q-14 73 -58 119t-119 66.5t-175 20.5q-115 0 -237 -6l-19 -16zM283 717l137 653q43 2 85 3t83 1q156 0 230 -70q50 -47 49 -139q0 -44 -11 -98h-2 q-35 -164 -145.5 -261t-276.5 -97q-35 0 -75 1t-74 7z" />
<glyph unicode="Q" d="M120 454q9 -132 64.5 -232.5t158.5 -162t263 -69.5q-2 -4 -4 -6t-2 -4q-10 -53 -10 -100q0 -98 44 -166q66 -99 240 -99q80 0 152 26.5t128 76t95 116t56 146.5q4 16 -15 16h-61l-21 -16q-12 -59 -38.5 -111.5t-67.5 -90.5t-94.5 -60.5t-116.5 -22.5t-107.5 21.5 t-69 60.5t-29.5 90q-1 15 -1 31q0 38 8 82v10q160 8 289 71.5t227.5 164t163.5 232.5t96 279q27 128 27 236q0 31 -2 61q-10 133 -70.5 226.5t-175 144.5t-286.5 51t-308.5 -51t-238 -144.5t-168 -226.5t-101.5 -297q-26 -121 -26 -229q0 -28 1 -54zM216 482q-2 29 -2 58 q0 96 22 197q31 141 88 259t144 204t206 133t272 47q152 0 250 -47t148.5 -133t57.5 -204q1 -22 1 -44q0 -100 -25 -215h-2q-29 -133 -88 -255t-149 -215t-209 -148.5t-266 -55.5q-145 0 -241.5 55.5t-147 148.5t-59.5 215z" />
<glyph unicode="R" horiz-adv-x="1042" d="M27 16l12 -16h57l21 16l139 652h231q45 0 81 -39t62.5 -100.5t47 -136.5t36 -147.5t27 -136t19.5 -98.5l12 -10q6 0 20 -1q7 0 14 -1q6 0 14 1q16 1 29 4t15 11q0 4 1 6.5t-3 6.5q-16 63 -34.5 123.5t-32.5 125.5q-10 45 -22.5 107.5t-33 124t-48 115t-64.5 77.5 q131 45 218 146.5t116 230.5q14 63 14 115q0 32 -5 59q-14 72 -58 116t-116.5 64.5t-168.5 20.5q-139 0 -283 -6l-16 -16zM270 745l131 625q53 2 105.5 3t105.5 1q150 0 222 -68q50 -47 50 -138q0 -41 -10 -91h-2q-14 -70 -49 -130t-85 -105t-113.5 -71t-135.5 -26h-219z " />
<glyph unicode="S" horiz-adv-x="989" d="M-39 53l10 -14q74 -29 161 -40t173 -11q84 0 165 19.5t148.5 62.5t116.5 109.5t69 160.5q12 54 13 99q0 33 -7 61q-15 66 -54 112.5t-93.5 81.5t-112.5 64.5t-113.5 60.5t-95.5 72q-39 41 -57 97q-9 28 -10 63q0 34 9 73q14 68 48 116t82 80t107.5 46t120.5 14 q59 0 94 -5t62.5 -13t56.5 -20.5t74 -24.5q2 -2 10 -2q6 0 10 6t4 10l15 66l-11 16q-66 25 -145.5 34t-155.5 9q-80 0 -154.5 -19.5t-136 -61.5t-106.5 -105.5t-63 -149.5q-10 -50 -10 -92q0 -34 7 -64q15 -64 54 -111.5t94 -82.5t113.5 -64.5t114 -61.5t94 -74t56.5 -98 q9 -29 9 -66q0 -33 -8 -72q-16 -72 -56 -123t-95.5 -84t-120 -48.5t-128.5 -15.5q-143 0 -262 54q-12 6 -25.5 14t-27.5 12q-4 2 -10 2q-16 0 -17 -14z" />
<glyph unicode="T" horiz-adv-x="1138" d="M245 1386v-7q0 -8 1 -14q2 -9 12 -9q61 0 122.5 5t123.5 5h160l-287 -1350l12 -16h55l21 16l287 1350h172q59 0 115.5 -3t113.5 -7l23 16l12 58l-14 16h-900l-18 -16q-2 -6 -6 -19t-5 -25z" />
<glyph unicode="U" horiz-adv-x="1277" d="M75 290q9 -97 55 -165t132 -102.5t221 -34.5q125 0 225.5 39t179.5 108.5t134 166.5t88 214q61 217 110.5 434t96.5 434l10 46l-12 16h-58l-20 -16l-10 -46q-47 -217 -93.5 -434t-111.5 -434q-29 -96 -75 -178t-110.5 -142.5t-148.5 -95t-188 -34.5q-115 0 -185.5 31.5 t-107.5 90t-43 142.5q-2 28 -2 58q0 60 8 130q29 227 78 454.5t96 457.5l-12 16h-58l-20 -16l-12 -58q-47 -215 -89 -429t-71 -429q-10 -81 -10 -150q0 -39 3 -74z" />
<glyph unicode="V" horiz-adv-x="1382" d="M254 1434v-6q0 -13 4 -50q6 -49 16.5 -119.5t22.5 -154.5t24.5 -161t20.5 -134t12 -78l103 -721l14 -10h53l17 10q14 25 60 97.5t111.5 176t144.5 228.5t158 251t153.5 245.5t133.5 213.5q58 92 94 150t36 65q0 9 -13 9h-61l-17 -10l-815 -1309l-180 1309l-14 10 q-4 0 -16 1q-6 0 -13 0.5t-13 -0.5q-14 -1 -24 -4t-12 -9z" />
<glyph unicode="W" horiz-adv-x="1910" d="M247 1380v-18q0 -18 1 -34q2 -26 4 -52.5t2 -46.5l2 -496l4 -721l14 -12h58l18 10q180 324 362.5 645.5t362.5 644.5l180 -1290l15 -10h57l19 12q152 356 304 706.5t306 706.5q2 3 2 7q0 2 -2 6q-4 8 -12 8h-60l-16 -12q-135 -319 -269.5 -636t-269.5 -636l-178 1263 l-12 11h-58l-18 -11q-180 -317 -357.5 -631.5t-357.5 -631.5l-4 1272l-12 12q-8 0 -20.5 1t-24.5 1t-22.5 -5t-12.5 -18q-4 -19 -5 -45z" />
<glyph unicode="X" horiz-adv-x="1282" d="M-49 12q-2 -6 5 -9t11 -3h64l16 8l596 680l287 -680l12 -8q6 0 19.5 -1t27.5 -1t25.5 3t13.5 11q0 4 -20.5 56.5t-53 130t-71.5 169t-75 174.5t-62.5 144.5t-34.5 79.5q12 14 60 67.5t112.5 127t137.5 154.5t134.5 150.5t102 117t40.5 51.5v3q0 4 -4 6q-6 3 -10 3h-70 l-16 -8l-514 -594l-244 594l-12 8q-4 0 -18 1q-7 0 -13.5 0.5t-12.5 -0.5q-13 -1 -24.5 -4t-13.5 -9q-2 -4 16.5 -50.5t45 -115t59.5 -150.5t63.5 -155.5t53 -129t28.5 -71.5q-14 -16 -67 -75.5t-127 -141.5t-155 -174t-150.5 -170t-115.5 -131.5t-46 -57.5z" />
<glyph unicode="Y" horiz-adv-x="1046" d="M254 1434q0 -11 12 -62q13 -57 32 -141t44 -183.5t47.5 -189.5t38.5 -157.5t23 -88.5l-127 -596l10 -16h59l21 16l127 600q12 16 57 83t106.5 156t130 188.5t126 185.5t95.5 143.5t40 63.5v2q0 3 -4 5q-7 3 -11 3h-53l-16 -10q-125 -184 -249 -365.5t-247 -365.5 l-172 731l-12 10q-4 0 -16 1q-7 1 -13.5 1t-12.5 -1q-14 -1 -24 -3q-12 -2 -12 -10z" />
<glyph unicode="Z" horiz-adv-x="1196" d="M-47 16l10 -16h479q240 0 482 -6l16 16q2 6 5 18.5t5 25t1 21.5t-9 9q-90 0 -180 -4t-180 -4h-512l1151 1308l10 46l-14 16h-922l-19 -16q-2 -6 -6 -18.5t-6 -24t0 -20.5t12 -9q418 0 834 12l-1147 -1304z" />
<glyph unicode="[" horiz-adv-x="466" d="M-61 -16l12 -17h227q4 0 10.5 5t10.5 10l10 45l-14 16q-35 6 -74 4t-76 4l299 1401l154 8l18 17q0 4 4 14t5 20.5t-1 18.5t-10 8q-57 0 -114.5 -1t-116.5 -1l-17 -16z" />
<glyph unicode="\" horiz-adv-x="819" d="M252 1430q0 -2 8 -59.5t22.5 -152t33 -215t39 -249.5t40 -254t35.5 -227.5t26.5 -173t14.5 -89.5l12 -10q4 0 17.5 -1t25.5 -1q14 0 26.5 4t14.5 14q0 2 -8 59.5t-22.5 152t-33 215t-39 249.5t-39.5 254t-35.5 227.5t-28 173t-13.5 89.5l-12 10q-4 0 -17.5 1t-27.5 1 q-12 0 -24.5 -4t-14.5 -14z" />
<glyph unicode="]" horiz-adv-x="462" d="M-61 -18q0 -14 12 -15h227l19 17l327 1536l-12 16q-57 0 -112.5 1t-112.5 1q-16 0 -21 -16l-10 -45q2 -10 22.5 -14.5t47 -5.5t53.5 -2t39 -3l-299 -1401l-154 -8l-16 -16z" />
<glyph unicode="^" horiz-adv-x="1054" d="M66 1147q-4 -16 14 -17h55l422 328l283 -328q16 0 40.5 -1.5t34.5 18.5q0 4 -18 30.5t-48 64.5t-64.5 81t-66.5 83t-55.5 68.5t-29.5 36.5q-4 4 -12 5h-105l-444 -357z" />
<glyph unicode="_" horiz-adv-x="1163" d="M-61 -453l12 -16h1200l20 16l9 47l-13 17h-1200l-20 -17z" />
<glyph unicode="`" horiz-adv-x="557" d="M150 1597q0 -2 12 -34.5t32.5 -80.5t44 -104.5t45 -106.5t37 -87t19.5 -47l12 -9q10 0 30 -0.5t24 15.5q0 2 -9.5 34.5t-25 81t-34 104.5t-35.5 106.5t-29.5 88t-16.5 48.5l-12 8h-72q-16 0 -22 -17z" />
<glyph unicode="a" horiz-adv-x="917" d="M56 160q10 -54 40.5 -91.5t79.5 -59t115 -21.5q117 0 214 57t169 160l-37 -189l14 -16h45l19 16l145 680q12 55 11 98q0 22 -3 42q-10 54 -46 87t-94 45.5t-136 12.5q-37 0 -80 -5t-87 -15.5t-87 -26.5t-80 -37l-10 -14q0 -6 -4 -18.5t-6 -27t-1 -24.5t9 -10 q4 0 34.5 16.5t78 35.5t104.5 35.5t115 16.5q55 0 98 -10t69.5 -33.5t34.5 -64.5q3 -16 3 -36q0 -30 -7 -67l-22 -110q-57 1 -125 1h-69q-108 -1 -211 -29t-183 -91.5t-107 -185.5q-8 -38 -8 -72q1 -26 5 -49zM148 198q-2 15 -3 30q0 26 7 53q16 76 59 123t101.5 73.5 t125 34.5t129.5 8h84t84 -4h-2q-4 -27 -11 -53.5t-15 -52.5q-18 -68 -56.5 -130.5t-90.5 -111.5t-116.5 -78t-138.5 -29q-45 0 -77.5 18.5t-53 48.5t-26.5 70z" />
<glyph unicode="b" horiz-adv-x="1026" d="M33 2q0 -6 6 -6h27q18 0 30 4q59 -8 121 -10t125 -2q123 0 227.5 48t185.5 128t137 184t81 219q16 75 16 137q0 108 -48 174q-75 104 -286 103q-100 0 -196.5 -39t-169.5 -125l153 723l-14 16h-53l-17 -16l-325 -1528v-10zM129 74l121 567q12 59 55 108.5t99.5 84t119 54 t115.5 19.5q169 0 227 -88q37 -55 36 -140q0 -51 -13 -112q-20 -96 -66.5 -187t-114 -162t-155.5 -114t-195 -43h-45q-33 0 -69.5 1t-70.5 4.5t-44 7.5z" />
<glyph unicode="c" horiz-adv-x="980" d="M86 300q4 -95 42 -164.5t113.5 -108.5t196.5 -39q74 0 169 18.5t169 56.5l12 15q4 16 10.5 41.5t-10.5 34.5q-2 0 -32.5 -14.5t-77.5 -32t-106.5 -32t-116.5 -14.5q-98 0 -158.5 37t-90.5 98.5t-32 142.5v16q0 74 16 153q18 86 56.5 160.5t93.5 128t129 84t166 30.5 q47 0 92 -10t83 -23.5t64.5 -23.5t34.5 -10q12 0 17 14l12 64l-6 14q-59 25 -136 37t-145 12q-111 0 -201 -33.5t-158.5 -97t-115.5 -152t-70 -194.5q-21 -96 -21 -179q0 -15 1 -29z" />
<glyph unicode="d" horiz-adv-x="1038" d="M18 278q4 -90 40 -154.5t108 -100t184 -35.5q111 0 211.5 58t169.5 157l-35 -187l13 -16h47l18 16l324 1524l-11 16h-53l-20 -16l-121 -573q-61 6 -124.5 10t-127.5 4q-258 0 -404.5 -127t-199.5 -383q-19 -87 -19 -164q-1 -14 0 -29zM104 314v14q0 67 17 143 q45 211 167 323.5t339 112.5q55 0 125.5 -5t121.5 -21l-90 -410q-16 -76 -51 -149.5t-87 -131t-121.5 -93.5t-155.5 -36q-92 0 -149.5 33t-85.5 89.5t-30 130.5z" />
<glyph unicode="e" horiz-adv-x="1007" d="M85 302q1 -97 38 -166.5t113.5 -108.5t203.5 -39q37 0 79 5t86 14t86 23.5t77 32.5l12 15q0 6 4 18.5t5.5 24.5t0 22.5t-9.5 10.5q-4 0 -34.5 -14.5t-76.5 -32t-101.5 -32t-110.5 -14.5q-96 0 -156.5 33t-91.5 89.5t-35 132.5q-1 14 -1 29q0 65 15 138q176 0 351.5 5.5 t351.5 11.5l20 16q17 92 19 176v9q0 79 -26 141q-28 66 -89 104.5t-168 38.5q-106 0 -195.5 -35t-158 -96t-115.5 -147t-69 -189q-24 -114 -24 -209v-7zM205 559q18 76 57 141.5t95.5 111.5t126 72.5t147.5 26.5q70 0 116 -28.5t69.5 -76.5t28.5 -109q1 -18 1 -36 q0 -43 -8 -86q-145 -10 -287.5 -13t-286.5 -3h-59z" />
<glyph unicode="f" horiz-adv-x="827" d="M70 16l12 -16h51l21 16l180 846h344l18 17l11 45l-15 16h-344l51 238q12 55 32 101t50.5 81t74.5 54.5t106 19.5q39 0 81.5 -12.5t69.5 -39.5l29 11l14 67l-8 15q-33 18 -82 25t-90 7q-129 0 -201 -53t-111.5 -136t-58 -183.5t-39.5 -194.5h-127l-20 -16l-10 -45l16 -17 h125z" />
<glyph unicode="g" horiz-adv-x="933" d="M-49 -393q16 -20 49 -33.5t71 -22t76.5 -11.5t65.5 -3q100 0 181 35t141.5 94.5t101.5 139t59 169.5l205 965l-12 16q-53 14 -112.5 19.5t-117.5 5.5q-106 0 -203.5 -44t-176 -118t-134 -170t-77.5 -200q-18 -84 -19 -166q0 -82 24.5 -146.5t80 -104.5t151.5 -40 q102 0 195.5 59.5t158.5 145.5l-51 -242q-14 -70 -46 -131.5t-80 -108.5t-111.5 -74.5t-141.5 -27.5q-27 0 -61.5 4t-67 14.5t-60.5 25.5t-42 40l-10 6q-16 0 -21 -16zM136 320q3 67 16 129q18 86 63 168.5t110.5 147t146.5 103.5t171 39q43 0 84 -5t82 -17l-86 -391 q-14 -66 -51 -142t-90.5 -139t-120 -105t-139.5 -42q-74 0 -114 36.5t-58 93.5q-14 48 -14 104v20z" />
<glyph unicode="h" horiz-adv-x="1005" d="M-59 16l12 -16h53l21 16l133 629q12 59 55 107.5t99.5 83t119 53t113.5 18.5q63 0 113.5 -16.5t84 -50t45.5 -82.5q6 -22 6 -48q0 -31 -8 -69l-133 -625l13 -16h53l20 16l133 625q10 51 10 93q0 34 -6 62q-14 64 -55 105t-107.5 60.5t-152.5 19.5q-98 0 -194.5 -40 t-171.5 -124l153 723l-12 16h-53l-21 -16z" />
<glyph unicode="i" horiz-adv-x="317" d="M-23 16l17 -16h53l16 16l201 938l-12 17h-53l-21 -17zM221 1219l15 -15h81l17 15l18 79l-14 17h-82l-16 -17z" />
<glyph unicode="j" horiz-adv-x="684" d="M-76 -410l6 -14q27 -20 67 -29.5t77 -9.5q109 0 180.5 49t117.5 125t72.5 168t44.5 176l191 899l-10 17h-54l-20 -17q-47 -225 -94 -449t-94 -450q-12 -59 -33 -136t-56.5 -145.5t-92 -115.5t-138.5 -47q-31 0 -67.5 11t-53.5 38l-12 6q-14 0 -18 -16zM639 1219l12 -15 h80l19 15l18 79l-14 17h-80l-17 -17z" />
<glyph unicode="k" horiz-adv-x="917" d="M33 16l14 -16h51l21 16l106 500l426 -516h74q6 0 11 6t9 10q0 8 -4 13q-111 137 -223 270t-229 268l569 391l8 13q1 3 1 5q0 11 -15 11h-72q-135 -96 -269 -190.5t-269 -190.5l198 936l-12 17h-51l-21 -17z" />
<glyph unicode="l" horiz-adv-x="671" d="M126 330q-7 -45 -6 -86q0 -43 7 -82q14 -76 65.5 -125t159.5 -49q37 0 81 9t79 30l10 14q2 8 5 19.5t5 22.5q2 7 2 13v8q-2 10 -10 13q-4 0 -16 -8.5t-31.5 -19.5t-46.5 -19.5t-63 -8.5q-84 0 -119 47.5t-41 115.5q-2 22 -2 45q0 49 9 101q13 76 26 136q53 260 109.5 517 t111.5 517l-12 16h-54l-18 -16l-219 -1034q-18 -84 -32 -176z" />
<glyph unicode="m" horiz-adv-x="1544" d="M2 16l12 -16h54l20 16l131 623q12 55 50 104.5t88.5 86t107.5 57t110 20.5q123 -1 167 -75q28 -48 28 -114q0 -36 -8 -77l-133 -625l12 -16h53l21 16l133 625q12 55 49 103.5t88 85t108.5 57t108.5 20.5q127 -1 169 -73q27 -46 27 -111q0 -38 -9 -82l-134 -625l13 -16h53 l20 16l134 625q11 54 12 101q0 89 -42 148q-63 91 -226 91q-104 0 -198.5 -53.5t-162.5 -143.5q-20 90 -95 143.5t-171 53.5q-94 0 -182 -45t-156 -123l25 141l-13 17h-45l-20 -17z" />
<glyph unicode="n" horiz-adv-x="1005" d="M2 16l12 -16h54l20 16l137 643q10 53 54.5 98.5t102.5 79t119.5 52t106.5 18.5q63 0 113.5 -16.5t84.5 -50t46 -82.5q6 -23 6 -49q0 -31 -8 -68l-133 -625l12 -16h53l21 16l133 625q10 51 11 93q0 34 -7 62q-14 64 -56 105t-108.5 60.5t-150.5 19.5q-102 0 -199.5 -44 t-171.5 -130l25 147l-13 17h-45l-20 -17z" />
<glyph unicode="o" horiz-adv-x="1112" d="M88 288q8 -92 51 -158.5t121 -104t193 -37.5t207 37.5t162.5 104.5t117.5 158.5t70 200.5q20 90 19 166q-1 20 -1 39q-6 92 -47 156.5t-119 99.5t-198 35q-240 0 -376 -133t-186 -363q-17 -80 -17 -150q1 -26 3 -51zM174 326q-2 19 -2 39q0 60 14 124q18 90 56.5 168 t95.5 134.5t135 88t176 31.5t160.5 -31.5t95.5 -89t36 -134.5v-22q0 -68 -15 -145h-2q-18 -86 -56.5 -163.5t-95.5 -136t-134 -93.5t-171 -35t-156.5 35t-96.5 93.5t-40 136.5z" />
<glyph unicode="p" horiz-adv-x="1011" d="M-49 -461l10 -16h53l21 16l100 475q53 -12 108.5 -19t112.5 -7q117 0 218.5 47t182.5 125t136 178t78 209q17 77 17 141q0 108 -47 180q-75 117 -286 117q-98 0 -188 -43t-162 -125l31 137l-14 17h-54l-16 -17zM154 94l98 463q14 70 49 134.5t85 113.5t113.5 77.5 t139.5 28.5q86 0 142.5 -26.5t85 -74.5t33.5 -116q1 -14 1 -29q0 -55 -14 -118q-18 -92 -63.5 -179t-112 -156t-152.5 -110t-186 -41q-57 0 -112.5 6.5t-106.5 26.5z" />
<glyph unicode="q" horiz-adv-x="1019" d="M126 285v-6q0 -84 28 -149q28 -67 94.5 -104.5t181.5 -37.5q117 0 218.5 56t174.5 161l-141 -666l12 -16h54l18 16l301 1417q1 2 1 4.5t-1 5.5q-2 7 -6 7q-16 0 -32.5 3t-31.5 -1q-61 2 -121.5 4t-123.5 2q-242 0 -396.5 -135t-205.5 -373q-23 -100 -24 -188zM215 322 q2 73 18 151q20 98 64.5 178t108 136.5t147.5 88t184 31.5q59 0 120 -1t118 -11h-2q-25 -121 -52.5 -242t-60.5 -241q-18 -70 -58 -133.5t-94.5 -111.5t-121 -77t-140.5 -29q-90 0 -140 36t-72 93q-19 53 -19 119v13z" />
<glyph unicode="r" horiz-adv-x="675" d="M88 16l12 -16h54l20 16l129 613q12 57 45 105t79 83t100.5 55.5t109.5 20.5q18 0 43 -1t43 -9l22 14l15 61l-12 17q-14 4 -31 4h-35q-92 0 -180 -41t-160 -117l29 133l-13 17h-53l-18 -17z" />
<glyph unicode="s" horiz-adv-x="800" d="M8 45l8 -12q51 -23 120 -34t128 -11t120.5 12t115 42t92.5 77t53 114q7 35 8 64q-1 45 -17 77q-26 54 -75 90t-109.5 62.5t-110.5 56t-79 70.5q-19 27 -19 66q0 20 5 43q8 43 32.5 71.5t58.5 46t72 24.5t74 7q39 0 78 -8t73 -17t60.5 -17.5t38.5 -8.5q4 0 8.5 6t4.5 11 l14 59l-10 14q-57 18 -122 26.5t-128 8.5q-53 0 -108.5 -11t-101.5 -38t-81 -70t-47 -104q-7 -36 -7 -67q1 -43 15 -75q26 -54 74.5 -91t109 -63t110.5 -54.5t80 -68.5q20 -27 20 -66q0 -18 -5 -39q-10 -49 -38.5 -83t-67.5 -54.5t-84 -30t-86 -9.5q-51 0 -82 5.5 t-54.5 14.5t-47 21.5t-60.5 26.5q-14 0 -18 -16z" />
<glyph unicode="t" horiz-adv-x="843" d="M172 879l14 -17h142l-121 -569q-13 -68 -15 -124q0 -4 -1 -8q-1 -51 19 -88q20 -40 63.5 -62.5t117.5 -22.5q51 0 115.5 14t116.5 43l12 12q0 6 4 18.5t6 25t1 22.5t-9 10t-30.5 -11t-55.5 -24.5t-71 -25t-77 -11.5q-49 0 -77 21q-26 20 -38 53q-9 27 -10 60v15 q2 42 11 83l121 569h348l20 17l10 45l-16 16h-346l61 289l-14 16h-41l-20 -16q-16 -72 -34 -144.5t-36 -144.5h-141l-19 -16z" />
<glyph unicode="u" horiz-adv-x="989" d="M70 232q4 -74 34.5 -128.5t90 -85t151.5 -30.5q121 0 222.5 56t179.5 161l-39 -189l12 -16h47l20 16l199 938l-12 17h-53l-19 -17q-29 -137 -58.5 -272t-58.5 -272q-16 -72 -57 -135.5t-99.5 -110.5t-128 -75t-139.5 -28q-74 0 -118.5 27t-65.5 73q-22 47 -23 105v7 q0 55 13 116l125 565q0 14 -10 17h-54l-20 -17q-33 -141 -64.5 -282.5t-60.5 -282.5q-15 -69 -15 -130q0 -14 1 -27z" />
<glyph unicode="v" horiz-adv-x="970" d="M203 955q0 -13 8 -69q10 -66 25.5 -164.5t34 -215.5t35 -220.5t28.5 -179t16 -96.5l15 -10h30l17 10q8 14 36.5 62.5t68.5 116t89 150.5t99.5 168t97.5 165t84 142.5t59.5 101t22.5 42.5q2 6 -4.5 9.5t-10.5 3.5h-53l-16 -10q-117 -205 -235 -405t-236 -402l-117 807 l-14 10q-5 0 -17 1h-12h-14q-14 -1 -24 -4q-13 -3 -13 -13z" />
<glyph unicode="w" horiz-adv-x="1472" d="M203 950l28 -938l13 -12h61l19 10q117 205 230.5 409t229.5 408l134 -817l14 -10h51l18 12l48 96t90.5 179.5t110 220.5t106.5 215t81.5 165t32.5 73v2q0 3 -4 5q-6 3 -10 3h-45l-18 -13q-102 -207 -205 -410.5t-207 -410.5l-135 824l-12 10h-37l-17 -10 q-117 -205 -231.5 -408t-231.5 -408l-22 813l-14 13q-7 0 -19 1h-12h-14q-14 -1 -23.5 -5t-9.5 -17z" />
<glyph unicode="x" horiz-adv-x="1044" d="M2 14q-1 -2 -1 -3q0 -4 4 -7q5 -4 11 -4h66l14 6q104 113 207 224.5t209 220.5q59 -111 118.5 -219.5t112.5 -223.5l15 -8q16 0 44 -2h6q24 0 34 16l-18 34q-17 34 -44.5 84t-61.5 110.5t-63.5 115t-53 95.5t-30.5 53q12 14 50 52t86.5 88t101.5 103.5t97 99.5t73 75.5 t29 31.5q1 2 1 3q-1 3 -5 7q-6 4 -11 5h-65l-15 -8q-92 -104 -187 -202.5t-191 -199.5q-53 100 -105.5 200.5t-105.5 203.5l-13 6q-15 0 -45 2h-6q-25 0 -35 -17q0 -2 16.5 -31.5t42 -75.5t56.5 -100.5t59.5 -104.5t50 -88t27.5 -50q-14 -14 -55 -56t-93.5 -95.5 t-109.5 -112t-105 -108.5t-80 -84t-32 -36z" />
<glyph unicode="y" horiz-adv-x="1118" d="M164 -397q-1 -2 -1 -3q0 -4 4 -6q5 -2 9 -2h62l16 9q12 20 58 87.5t111.5 166t146.5 217t162 240.5t158 238t136 206t96 145.5t37 59.5q1 1 1 2q0 3 -4 5q-5 3 -9 3h-64l-18 -10q-137 -213 -275.5 -423t-277.5 -423l-176 846l-10 10q-4 0 -16 1h-13.5h-14.5 q-14 -1 -24 -4t-12 -10q0 -4 13 -69.5t32.5 -163.5t44 -214t46 -219.5t38 -179t20.5 -94.5q-8 -10 -30.5 -43.5t-53 -79t-64.5 -94.5t-62.5 -92t-47 -72.5t-18.5 -33.5z" />
<glyph unicode="z" horiz-adv-x="991" d="M2 16l14 -16h754l18 16l11 43l-15 17h-630l815 837l10 41l-14 17h-717l-19 -17l-10 -43l14 -16h598l-821 -840z" />
<glyph unicode="{" horiz-adv-x="497" d="M55 66q-4 -47 23.5 -79t75.5 -32h55l18 14l11 49l-13 17q-47 0 -64.5 13t-17.5 36q0 25 9.5 58.5t19.5 76.5q23 111 54.5 227.5t41.5 227.5q4 31 -13 51t-48 25q29 6 58.5 26.5t35.5 50.5l135 615q2 14 14.5 22.5t27 11.5t28.5 3h26l21 16l10 49l-14 17h-55 q-53 0 -85 -28t-51.5 -69t-29 -86t-17.5 -82q-25 -115 -42 -232.5t-54 -232.5q-10 -29 -37.5 -41t-54.5 -12l-21 -16l-6 -31l15 -16q41 0 55 -17.5t14 -46.5q0 -27 -10 -58.5t-16 -62.5q-25 -117 -54.5 -232.5t-44.5 -231.5z" />
<glyph unicode="|" horiz-adv-x="296" d="M-100 -358l16 -17h57l19 17l405 1898l-16 16h-57l-19 -16z" />
<glyph unicode="}" horiz-adv-x="505" d="M-66 -31l17 -14h55q55 0 89 37t54.5 88t29.5 106.5t18 92.5q23 98 40 197t52 196q10 27 38.5 35t51.5 8l18 16l6 31l-14 16q-23 0 -47.5 11.5t-19.5 39.5l116 619q10 51 -16.5 82t-77.5 31h-55l-19 -17l-10 -49l14 -16h25q14 0 25.5 -2t19.5 -9.5t6 -21.5 q-4 -57 -17.5 -117.5t-25.5 -120.5q-20 -94 -43.5 -192t-30.5 -191q-2 -29 15.5 -48t44.5 -27q-43 -12 -68.5 -45t-40 -74t-21.5 -86t-13 -78q-23 -98 -40.5 -198.5t-52.5 -198.5q-12 -31 -39.5 -33t-52.5 -2l-20 -17z" />
<glyph unicode="~" horiz-adv-x="1077" d="M96 1278q0 -4 2 -13.5t7.5 -18.5t9.5 -16t6 -7q8 0 29.5 15t51 33.5t66.5 34t74 15.5q51 0 99 -14.5t96.5 -33t95.5 -32.5t100 -14q59 0 127 28.5t117 69.5l6 21l-16 38l-11 9q-6 0 -23.5 -14.5t-44 -33t-61 -33t-77.5 -14.5q-53 0 -100.5 15.5t-94.5 33t-95 33 t-102 15.5q-16 0 -57 -11.5t-85 -28t-80 -38t-40 -39.5z" />
<glyph unicode="&#xa1;" horiz-adv-x="303" d="M-51 4l12 -16h59l19 16l262 1225l-14 16h-60l-16 -16zM240 1368l10 -14h74l14 14l16 74l-10 14h-74l-14 -14z" />
<glyph unicode="&#xa2;" horiz-adv-x="980" d="M89 318.5q1 -89.5 31 -159t94.5 -114.5t170.5 -55l-29 -133l13 -17h59l18 17l29 131q68 4 154 22.5t151 52.5l11 15q2 8 6 19.5t6 22.5t0 20.5t-10 13.5q-4 0 -13 -4q-70 -41 -143.5 -62.5t-144.5 -26.5l180 850q33 -2 72.5 -13t75.5 -23.5t62.5 -21.5t30.5 -9 q14 0 15 14l14 64l-8 14q-53 23 -118.5 34t-127.5 15l21 96l-15 17h-59l-17 -17l-22 -98q-102 -10 -183 -49t-141.5 -101.5t-100.5 -145.5t-60 -179q-23 -100 -22 -189.5zM177 356.5q1 73.5 18 151.5q16 76 46.5 144.5t79 121.5t113 88t146.5 45l-179 -841q-84 12 -132 53 t-70.5 102.5t-21.5 135z" />
<glyph unicode="&#xa3;" horiz-adv-x="974" d="M-49 16l14 -16h733l21 16q2 6 5 18.5t5 24t0 20.5t-12 9q-76 0 -154 -4t-155 -4h-336q47 55 93 123.5t85 140.5t68.5 145.5t43.5 139.5q4 20 7.5 40.5t5.5 41.5l350 -9l20 17l13 55l-17 17h-362q2 45 -3 91t-9.5 91t-4.5 90q0 47 11 94q12 61 45 103.5t77 68t96 36.5 t105 11q43 0 85 -8t77 -19.5t60.5 -19.5t33.5 -8q6 0 11.5 6t5.5 10l12 60l-10 16q-59 20 -125 31.5t-133 11.5q-72 0 -142.5 -16.5t-129 -52t-100.5 -92t-58 -138.5q-10 -47 -11.5 -93t3 -91t10.5 -91t6 -91h-131l-19 -17l-12 -51l16 -16q35 0 71 2t73 2q-4 -20 -8.5 -41 t-8.5 -41q-14 -68 -41.5 -143.5t-67.5 -150.5t-90 -142.5t-110 -116.5z" />
<glyph unicode="&#xa5;" horiz-adv-x="1030" d="M96 301l13 -16h260l-58 -269l11 -16h59l20 16l58 269h252l18 16l10 45l-12 16h-252l53 254h252l21 17l8 45l-12 16h-222q10 16 52.5 75.5t97.5 140.5t116.5 171t115 168t87 130.5t35.5 56.5t-3 7t-9 3h-55l-17 -10q-123 -180 -243.5 -359.5t-243.5 -359.5l-164 719 l-12 10q-4 0 -16.5 1t-26 0t-23.5 -3t-12 -8t9 -57.5t29.5 -127t40 -165t41 -170t35 -142t19.5 -80.5h-233l-19 -16l-8 -45l10 -17h260l-53 -254h-260l-19 -16z" />
<glyph unicode="&#xa6;" horiz-adv-x="1034" d="M-16 -168l6 -12q33 -20 77 -30.5t87 -10.5q96 0 166.5 35.5t121 95t82 136.5t49.5 161l258 1220l-14 17h-309l-21 -17l-10 -47l17 -16l239 -2q-63 -293 -124.5 -583t-123.5 -582q-12 -61 -35.5 -122t-61.5 -110t-92 -78.5t-128 -29.5q-31 0 -51.5 7t-38 17t-33.5 21.5 t-39 19.5q-16 0 -20 -18zM131 -260q-25 -129 26.5 -206t186.5 -77q129 0 216 79t118 204l-10 12h-47l-17 -12q-20 -92 -84.5 -156.5t-163.5 -64.5q-100 0 -137 63.5t-16 157.5l-8 12h-45zM250 999.5q-10 -51.5 17.5 -87t78.5 -35.5t95.5 35.5t54.5 86.5t-17.5 87t-79.5 36 q-51 0 -95 -35.5t-54 -87zM383 954.5q4 16.5 17.5 27.5t29.5 11t25.5 -11.5t5.5 -27.5t-17.5 -27.5t-29.5 -11.5t-25.5 11.5t-5.5 28zM803 999.5q-10 -51.5 17.5 -87t78.5 -35.5t95.5 35.5t54.5 86.5t-17.5 87t-79.5 36q-51 0 -95 -35.5t-54 -87zM936 954.5 q4 16.5 17.5 27.5t29.5 11t25.5 -11.5t5.5 -27.5t-17.5 -27.5t-29.5 -11.5t-25.5 11.5t-5.5 28z" />
<glyph unicode="&#xa7;" horiz-adv-x="499" d="M-41 49q-2 -10 16.5 -28.5t28.5 -18.5q18 0 47 36t56.5 83t47 90t23.5 59q12 57 11 115.5t-5 112.5q10 -4 16.5 -19.5t24.5 -15.5t47 36t55.5 82t47 90t24.5 60q12 59 9.5 116.5t-8 115t-8.5 114t9 115.5q10 53 46 107.5t83 89.5l9 12q4 12 -12.5 24.5t-24.5 18.5l-23 -4 q-53 -47 -95 -116t-54 -132q-12 -59 -10 -116.5t8 -115t8 -115t-10 -114.5q-16 -72 -57.5 -117t-88.5 -100q-4 47 -7 107.5t7 111.5t46 105.5t83 89.5l10 14q2 10 -14 22.5t-24 18.5l-21 -2q-53 -47 -95 -115.5t-56 -132.5q-12 -59 -10.5 -116.5t8 -115t8.5 -115.5t-11 -116 q-8 -41 -24.5 -68.5t-36.5 -51t-41.5 -47t-42.5 -54.5z" />
<glyph unicode="&#xa8;" horiz-adv-x="677" d="M92 1178l12 -17h91l18 17l20 92l-14 16h-90l-16 -16zM444 1178l15 -17h90l16 17l21 90l-13 16h-90l-18 -16z" />
<glyph unicode="&#xa9;" horiz-adv-x="1636" d="M97.5 436q27.5 -133 103 -233.5t194.5 -157.5t273 -57t296 58t257.5 157.5t197.5 232.5t115 285q31 150 5 284t-99.5 234t-190 158.5t-270.5 58.5t-297 -58.5t-262 -157.5t-202 -233.5t-115.5 -286t-5 -284.5zM189.5 475q-25.5 117 3.5 246q27 129 101.5 245.5t179 206 t230 141.5t257.5 52q131 0 233 -52t166.5 -141.5t87.5 -206t-4 -245.5q-29 -129 -101.5 -245t-175 -205t-226.5 -141t-255 -52t-234.5 52t-170 140t-92 205zM440.5 545q5.5 -80 41.5 -138.5t101.5 -92t166.5 -33.5q61 0 138 15t140 44l12 16q2 6 6.5 22.5t7.5 34t2 30 t-12 12.5q-2 0 -26.5 -13.5t-63.5 -29t-87 -28.5t-97 -13q-74 0 -123 28.5t-74.5 76.5t-29.5 110.5t10 130.5q16 74 43 137.5t70 108.5t104 70.5t145 25.5q37 0 73 -8.5t66.5 -19.5t53 -19t33.5 -8q8 0 12 6t6 12l15 70l-9 16q-45 23 -111.5 32t-119.5 9 q-109 0 -189.5 -29.5t-138 -85t-94.5 -136.5t-59 -181q-18 -92 -12.5 -172z" />
<glyph unicode="&#xaa;" horiz-adv-x="579" d="M49 842l14 -17h330l21 17l8 37l-14 16h-330l-21 -16zM92 1096q-14 -68 17.5 -112t103.5 -44q47 0 90 21.5t80 60.5l-12 -59l14 -17h31l20 17l72 340q18 90 -20.5 120.5t-120.5 30.5q-37 0 -86.5 -11t-85.5 -34l-11 -14q0 -4 -2 -14.5t-3 -19.5t1 -16.5t8 -7.5 q4 0 19.5 8.5t38 18.5t51.5 18.5t57 8.5q51 0 75 -15.5t11 -72.5l-10 -46q-45 0 -98 -2t-101.5 -16t-86.5 -48t-52 -95zM160 1096q8 33 28.5 53t47 31.5t56.5 14.5t56 3h33q19 0 35 -2h-2q-8 -37 -22.5 -70.5t-38 -61.5t-55.5 -44t-75 -16q-37 0 -53 28.5t-10 63.5z" />
<glyph unicode="&#xab;" horiz-adv-x="907" d="M101 741.5q-1 -10.5 3 -16.5q6 -8 30 -38t54.5 -69.5t65.5 -84t65.5 -82t51 -62t22.5 -24.5q8 0 15.5 7t13.5 17t11 20.5t9 16.5h-2l-4 16l-252 306l385 303l9 16v14t-1.5 21.5t-4.5 19.5t-11 8q-4 0 -35.5 -24.5t-78 -61t-100.5 -80.5t-103 -84t-86 -71t-47 -39l-7 -10 q-2 -8 -3 -18.5zM396 741.5q-1 -10.5 3 -16.5l283 -356l8 -7q8 0 15.5 8.5t13.5 18.5t10 21.5t8 15.5l-6 16l-252 308l385 301l8 16l-2 51l-14 12q-6 0 -38 -24.5t-78 -61t-100 -80.5t-102.5 -84t-85 -71t-46.5 -39l-7 -10q-2 -8 -3 -18.5z" />
<glyph unicode="&#xac;" horiz-adv-x="903" d="M117 791l12 -17h596l-33 -156l13 -16h53l20 16l45 220l-12 14h-666l-20 -14z" />
<glyph unicode="&#xad;" horiz-adv-x="641" d="M98 586l15 -17h401l21 17l8 47l-15 16h-401l-21 -16z" />
<glyph unicode="&#xae;" horiz-adv-x="1671" d="M100 440q29 -133 107 -234.5t198.5 -159.5t272.5 -58t298 58t267 158.5t207 234.5t119 286t2 285t-110 232t-200.5 156.5t-271.5 57.5q-152 0 -296 -57.5t-265 -157.5t-207 -233.5t-119 -282.5q-31 -152 -2 -285zM192.5 479q-26.5 117 0 246t104.5 244.5t184.5 205 t233.5 141.5t256 52t234.5 -52t175 -141.5t97.5 -205t1 -244.5t-105 -247t-185.5 -207t-235.5 -141t-257 -52t-233.5 53t-174 142t-96 206zM498 268l14 -18h61l21 18l84 396h139q16 0 31.5 -26t29 -64.5t25.5 -87t21.5 -92.5t15.5 -79.5t8 -52.5l15 -12h88q6 0 13 6t11 10 q0 6 -4 15q-27 37 -37 88t-20 98q-4 18 -13.5 56t-21.5 77t-29.5 69.5t-38.5 35.5q39 10 74 33.5t63.5 55t48 68.5t27.5 74q29 137 -30.5 198.5t-192.5 61.5q-12 0 -44 -1t-67.5 -4t-65.5 -9t-36 -19zM698 758l72 340q55 6 113 6q82 0 121.5 -41t21.5 -127 q-16 -78 -73.5 -128t-135.5 -50h-119z" />
<glyph unicode="&#xaf;" horiz-adv-x="894" d="M98 1153l13 -16h657l20 16l11 49l-15 15h-657l-18 -15z" />
<glyph unicode="&#xb0;" horiz-adv-x="526" d="M102 1194q-14 -70 22 -116t105 -46q70 0 125.5 47t69.5 115t-22.5 114t-104.5 46t-124 -46t-71 -114zM170 1194q10 41 42 68.5t73 27.5q39 0 58 -29.5t11 -66.5q-8 -39 -39.5 -67.5t-72.5 -28.5t-60.5 27.5t-11.5 68.5z" />
<glyph unicode="&#xb1;" horiz-adv-x="854" d="M41 381l12 -16h602l19 16l10 47l-10 16h-602l-21 -16zM111 788l12 -16l264 2l-57 -262l10 -16h49l21 16l53 262l262 -2l18 16l11 50l-13 14h-262l58 262l-13 14h-49l-18 -14l-54 -262h-264l-18 -14z" />
<glyph unicode="&#xb2;" horiz-adv-x="1300" d="M85.5 181.5q14.5 -70.5 61 -113.5t120 -61.5t169.5 -18.5q33 0 75 4t85 11t84 20.5t76 31.5l10 15q2 6 6 19t6 26.5t1 25t-9 11.5q-6 0 -37 -13.5t-76 -31t-100 -31t-106 -13.5q-76 0 -134.5 15.5t-93.5 49.5t-46 89t7 137q18 86 81 162t146 137.5t175 108.5t170 74 l12 14l92 389l-16 16q-6 0 -19.5 1t-27.5 1q-12 0 -23.5 -4t-13.5 -14q-18 -86 -35.5 -173t-34.5 -173q-80 -35 -176 -90t-183 -126t-152.5 -153t-84.5 -170q-23 -102 -8.5 -172.5zM278.5 1020q-10.5 -51 17.5 -87t79 -36t95 36t54 87t-17.5 87t-78.5 36t-95 -36t-54.5 -87z M412 974.5q4 16.5 17 28t30 11.5q16 0 25 -11.5t5 -27.5t-17 -27.5t-30 -11.5q-16 0 -25 11t-5 27.5zM467 -147q-31 -147 30.5 -234.5t209.5 -87.5q72 0 133 23.5t110 66.5t83 101.5t50 130.5q2 4 -3 8t-9 6h-53l-17 -14q-12 -53 -36.5 -98.5t-60.5 -80t-82 -54t-101 -19.5 q-113 0 -155 71.5t-19 180.5l-12 14h-52q-12 -4 -16 -14zM750 1184q-31 -147 30.5 -234.5t208.5 -87.5q72 0 133.5 23.5t110.5 66.5t83 101.5t50 130.5q2 4 -2 8t-8 6h-53l-19 -14q-10 -53 -34.5 -98.5t-60.5 -80t-83 -54t-102 -19.5q-113 0 -155 71.5t-20 180.5l-10 14h-51 q-14 -4 -18 -14z" />
<glyph unicode="&#xb3;" horiz-adv-x="1208" d="M4 16l12 -16h725h47l19 14l65 301l-14 17h-47l-20 -19l-48 -227q-72 -4 -141.5 -7t-138.5 -3q-84 0 -166 1t-166 1q61 61 144 137t174.5 161t181.5 175t165.5 181t130 179t70.5 168q23 104 12.5 176t-51 116t-111.5 62.5t-169 18.5q-74 0 -154 -13.5t-153 -31.5l-17 -16 q0 -4 -4 -16.5t-6 -26t-2 -23.5t6 -10q14 0 48 9t77 19.5t91 19.5t93 9q147 0 216 -68.5t36 -224.5q-16 -72 -71.5 -158.5t-135 -180t-175 -187.5t-188.5 -180t-178 -162t-145 -129zM303 -164q-31 -147 29.5 -234t208.5 -87q72 0 134 23.5t111.5 66.5t83.5 101t50 130 q0 10 -13 14h-53l-16 -14q-12 -53 -37 -98t-60.5 -80t-82 -54.5t-101.5 -19.5q-113 0 -155 72t-19 180l-12 14h-52q-4 -2 -10 -6t-6 -8zM372.5 794.5q-10.5 -51.5 18.5 -87t80 -35.5t94 36t53 87t-17.5 87t-78.5 36t-95 -36t-54.5 -87.5zM508 749.5q4 16.5 17.5 27.5 t29.5 11t25.5 -11t5.5 -27t-17.5 -27.5t-29.5 -11.5t-25.5 11t-5.5 27.5zM925.5 794.5q-10.5 -51.5 18.5 -87t80 -35.5t94 36t53 87t-17.5 87t-78.5 36t-95 -36t-54.5 -87.5zM1061 749.5q4 16.5 17.5 27.5t29.5 11t25.5 -11t5.5 -27t-17.5 -27.5t-29.5 -11.5t-25.5 11 t-5.5 27.5z" />
<glyph unicode="&#xb4;" horiz-adv-x="600" d="M57 1145q0 -16 17 -17h37l10 7q10 10 45 43.5t81 81t98 98.5t95 96t72 76t31 35q2 12 -15 12h-71l-15 -6q-8 -10 -39.5 -44t-73.5 -80t-89 -98.5t-87 -96.5t-67 -74.5t-29 -32.5z" />
<glyph unicode="&#xb5;" horiz-adv-x="989" d="M-33 -352l13 -17q6 0 18 -1t25 -1q12 0 22 4.5t12 14.5q25 115 42.5 229.5t39.5 228.5q6 -35 33 -58t63.5 -37.5t77.5 -20.5t72 -6q113 0 201 32.5t153.5 94t108.5 147.5t67 193l111 503l-12 17h-56l-20 -17l-113 -528q-16 -74 -55 -141.5t-95.5 -117.5t-126 -80 t-147.5 -30q-72 0 -114.5 35t-63 89.5t-20.5 119.5q0 66 12 125q29 133 60.5 264t60.5 264q4 16 -12 17h-56l-20 -17q-35 -143 -66.5 -284.5t-60.5 -284.5q-41 -186 -78 -368.5t-76 -368.5z" />
<glyph unicode="&#xb6;" horiz-adv-x="878" d="M197 1067q-45 -209 44 -318.5t296 -109.5l10 -1t12 3q0 2 -2 2l-176 -831l12 -17h51l21 17l332 1564h51l-332 -1564l12 -17h56l20 17l344 1622l-12 16q-59 2 -117.5 4t-118.5 2q-203 0 -330.5 -88t-172.5 -301zM285 1067q35 170 137 241.5t262 71.5q8 0 14.5 -1t14.5 -1 l-140 -655l-6 -6q4 4 -3 1t-11 -3q-164 0 -233.5 94t-34.5 258z" />
<glyph unicode="&#xb7;" horiz-adv-x="333" d="M92 803l14 -17h95l20 17l21 98l-15 17h-94l-20 -17z" />
<glyph unicode="&#xb8;" horiz-adv-x="550" d="M68 -336l6 -14q29 -16 66.5 -24.5t72.5 -8.5t70.5 8t66.5 25.5t53.5 45t30.5 68.5q6 27 -3 49.5t-26.5 39t-40 29t-45.5 18.5h5l-72 24q2 14 12 30.5t21.5 32t20.5 26t9 14.5q4 14 -13 16t-28 2l-16 -8q-23 -27 -48.5 -65t-33.5 -70q-4 -14 5 -25.5t23.5 -20t31 -14.5 t26.5 -10l-4 2q12 -4 27.5 -10t29 -15.5t21.5 -21.5t6 -27q-10 -41 -46 -55t-71 -14q-29 0 -49 7t-35.5 16.5t-27 16.5t-19.5 7q-4 0 -9 -6t-5 -11z" />
<glyph unicode="&#xb9;" horiz-adv-x="1024" />
<glyph unicode="&#xba;" horiz-adv-x="679" d="M86 842l12 -17h346l21 17l8 37l-14 16h-346l-19 -16zM115 1200q-23 -113 19 -186.5t161 -73.5q55 0 104.5 21.5t88 58.5t65.5 84t39 100q23 109 -26.5 180.5t-159.5 71.5q-125 0 -195 -68.5t-96 -187.5zM178 1127.5q-4 35.5 4 72.5t26.5 72t46.5 61.5t62.5 43t73.5 16.5 q35 0 60.5 -17.5t40 -45t18.5 -60.5t-2 -66q-8 -35 -25.5 -69.5t-43 -64.5t-58.5 -48t-72 -18q-41 0 -68.5 16t-43 44t-19.5 63.5z" />
<glyph unicode="&#xbb;" horiz-adv-x="890" d="M37 424l8 -49l12 -10q4 0 36 24.5t78 61t100.5 82t102.5 85t85 69.5t47 38q0 4 3 6t3 6h-2l4 23l-2 10l-285 354l-10 6q-16 -2 -27.5 -26.5t-19.5 -36.5l6 -16l256 -303l-389 -306zM309 426q4 -16 4 -37q0 -20 17 -27q4 0 35.5 25t77.5 62.5t100.5 81.5t103.5 85t86 71 t47 38q0 4 3 6t3 6l5 23l-5 10l-284 354l-10 6q-16 -2 -27.5 -26.5t-20.5 -36.5l7 -16q63 -76 126.5 -151t127.5 -152l-388 -306z" />
<glyph unicode="&#xbc;" horiz-adv-x="1218" d="M19 76q6 -33 26.5 -52.5t54 -27.5t78.5 -8q18 0 44 3t53.5 9t53 16.5t42.5 24.5l35 59q6 10 -5 17q-4 0 -19 -8.5t-40 -19.5t-55.5 -19.5t-63.5 -8.5q-133 0 -106 132q8 37 24.5 77.5t38 81.5t44 80t42.5 74l625 1034q8 12 -6 16h-54q-4 -4 -12 -7t-12 -9l-623 -1034 q-23 -39 -48 -83t-47.5 -89t-40 -91t-25.5 -87q-10 -47 -4 -80zM350 -164q-31 -147 30.5 -234t209.5 -87q72 0 134 23.5t111.5 66.5t83.5 101t48 130q4 10 -11 14h-53l-18 -14q-10 -53 -35 -98t-60.5 -80t-83 -54.5t-102.5 -19.5q-113 0 -154.5 72t-19.5 180l-10 14h-51 q-4 -2 -10.5 -6t-8.5 -8zM655 1270q-31 -147 31 -234.5t209 -87.5q72 0 134.5 23.5t111.5 66.5t83 101.5t48 130.5q2 4 -2 8t-8 6h-54l-18 -14q-10 -53 -35 -98.5t-60.5 -80t-82.5 -54t-103 -19.5q-113 0 -154.5 71.5t-19.5 180.5l-10 14h-51q-14 -4 -19 -14z" />
<glyph unicode="&#xbd;" horiz-adv-x="1302" d="M102.5 76q6.5 -33 27 -52.5t54 -27.5t78.5 -8q18 0 44 3t53.5 9t53 16.5t42.5 24.5l34 59q6 10 -4 17q-4 0 -19 -8.5t-40 -19.5t-55.5 -19.5t-63.5 -8.5q-133 0 -106 132q8 37 24.5 77.5t38 81.5t44 80t42.5 74l625 1034q8 12 -6 16h-54q-4 -4 -12 -7t-12 -9l-623 -1034 q-23 -39 -48 -83t-47.5 -89t-40 -91t-26.5 -87q-10 -47 -3.5 -80zM227.5 1122.5q-10.5 -51.5 17 -87.5t79.5 -36q51 0 95 36t54 87t-17.5 87t-78.5 36t-95 -35.5t-54.5 -87zM360.5 1077.5q4.5 16.5 17.5 27.5t30 11q16 0 25 -11.5t5 -27.5t-17 -27.5t-30 -11.5 q-16 0 -25.5 11.5t-5 28zM434 -164q-31 -147 30.5 -234t209.5 -87q72 0 134 23.5t111.5 66.5t83.5 101t48 130q4 10 -11 14h-53l-18 -14q-10 -53 -35 -98t-60.5 -80t-83 -54.5t-102.5 -19.5q-113 0 -154.5 72t-19.5 180l-10 14h-51q-4 -2 -10.5 -6t-8.5 -8zM739 1270 q-31 -147 30.5 -234.5t209.5 -87.5q72 0 134.5 23.5t111.5 66.5t83 101.5t48 130.5q2 4 -2 8t-8 6h-54l-18 -14q-10 -53 -35 -98.5t-60.5 -80t-82.5 -54t-103 -19.5q-113 0 -154.5 71.5t-19.5 180.5l-10 14h-51q-14 -4 -19 -14z" />
<glyph unicode="&#xbe;" horiz-adv-x="1019" d="M8 16l12 -16q381 2 762 0l13 6l10 10l49 240l-12 16h-47l-21 -18l-35 -170q-160 -8 -317 -8h-313q12 20 53 87.5t100.5 166t132 217.5t145 240.5t142.5 236.5t123 205t87 145.5t34 59.5q0 12 -15 12h-57l-14 -10l-822 -1364zM86 -362q-14 -66 18.5 -111t100.5 -45 q18 0 48 8t57.5 22.5t50 33.5t26.5 42q2 10 -11.5 17.5t-21.5 11.5l-20 -4q-39 -45 -92 -45q-39 0 -50.5 27.5t-5.5 62.5q4 18 20.5 44t38 52.5t43 49t38.5 38.5v-2l8 10l-23 13q-2 10 -9 13t-17 3l-19 -8q-20 -23 -49 -51.5t-55.5 -59t-48 -63.5t-27.5 -59zM233.5 999.5 q-10.5 -51.5 17.5 -87t79 -35.5t95 35.5t54 86.5t-18.5 87t-79.5 36t-94 -35.5t-53.5 -87zM366.5 954.5q4.5 16.5 17.5 27.5t30 11q16 0 25 -11.5t5 -27.5t-17 -27.5t-30 -11.5q-16 0 -25.5 11.5t-5 28zM786.5 999.5q-10.5 -51.5 17 -87t79.5 -35.5q51 0 95 35.5t54 86.5 t-18.5 87t-79.5 36t-94 -35.5t-53.5 -87zM919.5 954.5q4.5 16.5 17.5 27.5t30 11q16 0 25 -11.5t5 -27.5t-17 -27.5t-30 -11.5q-16 0 -25.5 11.5t-5 28z" />
<glyph unicode="&#xbf;" horiz-adv-x="940" d="M16.5 181.5q14.5 -70.5 60.5 -113.5t119.5 -61.5t170.5 -18.5q33 0 74.5 4t84.5 11t84 20.5t76 31.5l10 15q2 6 6.5 19t6.5 26.5t1 25t-10 11.5q-6 0 -36.5 -13.5t-75.5 -31t-100.5 -31t-106.5 -13.5q-76 0 -134.5 15.5t-93 49.5t-46 89t7.5 137q18 86 79.5 162 t144.5 137.5t176 108.5t171 74l12 14l93 389l-17 16q-6 0 -19.5 1t-27.5 1t-24.5 -4t-12.5 -14q-18 -86 -35.5 -173t-33.5 -173q-80 -35 -176.5 -90t-183.5 -126t-152.5 -153t-83.5 -170q-23 -102 -8.5 -172.5zM711 1368l10 -14h74l14 14l16 74l-10 14h-74l-14 -14z" />
<glyph unicode="&#xc0;" horiz-adv-x="1329" d="M-102 12q-2 -6 4 -9t10 -3h57l19 10q82 141 160.5 279.5t158.5 279.5h541l82 -559l14 -10q4 0 16.5 -1t25.5 0t23.5 4t12.5 9q0 6 -6 56.5t-17.5 125t-23.5 161.5t-24.5 166t-22.5 140.5t-13 81.5l-94 693l-14 10h-78l-16 -10q-29 -51 -79 -139.5t-112.5 -198 t-133.5 -232.5t-140.5 -243.5t-133 -230t-111.5 -193.5t-77 -135zM352 649l396 686l94 -686h-490zM672 1944q0 -2 12 -35t31.5 -81t43 -104.5t45 -106.5t37 -87t19.5 -47l14 -6q6 0 28 -1t26 15q0 2 -10.5 35t-25.5 81t-33.5 104t-36 106.5t-30 87.5t-16.5 47l-12 8h-72 q-16 0 -20 -16z" />
<glyph unicode="&#xc1;" horiz-adv-x="1329" d="M-102 12q-2 -6 5 -9t11 -3h57l19 10l319 559h541l82 -559l14 -10q4 0 15.5 -1t24.5 0t23.5 4t12.5 9t-4 56.5t-17.5 125t-24.5 161.5t-24.5 166t-21.5 140.5t-12 81.5l-95 693l-14 10h-78l-16 -10q-29 -51 -79 -139.5t-112.5 -198t-133.5 -232.5t-140.5 -243.5t-133 -230 t-111.5 -193.5t-77 -135zM352 649l398 686l92 -686h-490zM645 1513q-4 -16 14 -16h37l15 6q8 8 42.5 43t81 82t97.5 98.5t95 95.5t72.5 74.5t28.5 32.5q4 16 -12 17h-72l-16 -7q-8 -10 -40 -43.5t-74 -80t-89 -98.5t-87 -96t-66.5 -73.5t-26.5 -34.5z" />
<glyph unicode="&#xc2;" horiz-adv-x="1329" d="M-92 12q-2 -6 5 -9t11 -3h58l18 10l319 559h541l82 -559l14 -10q4 0 15.5 -1t25 0t23.5 4t12 9t-4 56.5t-17.5 125t-24.5 161.5t-24.5 166t-21.5 140.5t-12 81.5l-94 693l-15 10h-78l-16 -10q-29 -51 -79 -139.5t-112.5 -198t-133 -232.5t-140.5 -243.5t-133.5 -230 t-111.5 -193.5t-77 -135zM362 649l398 686l92 -686h-490zM383 1485q-4 -18 12 -19h58q104 84 209.5 164t211.5 162l283 -326q14 0 40 -0.5t36 15.5q0 4 -18.5 29.5t-48 63.5t-64.5 82t-66.5 83t-55.5 68.5t-30 37.5q-4 4 -12 4h-107q-10 -8 -45.5 -36.5t-86 -68.5 t-105.5 -85t-102.5 -83t-78 -63.5t-30.5 -27.5z" />
<glyph unicode="&#xc3;" horiz-adv-x="1329" d="M-76 12q-2 -6 4 -9t11 -3h57l18 10q82 141 161 279.5t159 279.5h540l82 -559l15 -10q4 0 16 -1t25.5 0t24 4t12.5 9q0 6 -6.5 56.5t-17.5 125t-23.5 161.5t-24.5 166t-22.5 140.5t-12.5 81.5l-94 693l-14 10h-78l-17 -10q-29 -51 -79 -139.5t-112.5 -198t-133 -232.5 t-140 -243.5t-133 -230t-111.5 -193.5t-77 -135zM379 649l395 686l94 -686h-489zM489 1575q4 -10 11.5 -24.5t21.5 -14.5l18 16q17 15 44.5 33.5t61.5 33.5t67 15q45 0 86 -14t82 -31.5t82 -32t88 -14.5q53 0 114.5 28.5t106.5 69.5l4 19l-16 37l-11 8q-4 0 -19.5 -14.5 t-38 -31t-54 -30.5t-70.5 -14q-45 0 -86 15.5t-81 32.5t-82 32.5t-89 15.5q-59 0 -123.5 -36t-111.5 -79z" />
<glyph unicode="&#xc4;" horiz-adv-x="1329" d="M-70 12q-2 -6 5.5 -9t11.5 -3h57l19 10l319 559h541l82 -559l14 -10q4 0 15.5 -1t24.5 0t23.5 4t12.5 9q0 6 -6.5 56.5t-16.5 125t-23.5 161.5t-24.5 166t-21.5 140.5t-12.5 81.5l-94 693l-14 10h-78l-16 -10q-29 -51 -80.5 -139.5t-113.5 -198t-133 -232.5 t-139.5 -243.5t-132 -230t-112.5 -193.5t-78 -135zM385 649l395 686l94 -686h-489zM590 1532l12 -16h88l19 16l18 92l-12 16h-88l-19 -16zM942 1532l12 -16h88l21 16l18 90l-14 16h-88l-18 -16z" />
<glyph unicode="&#xc5;" horiz-adv-x="1329" d="M-74 12q-2 -6 5.5 -9t11.5 -3h57l18 10q80 141 159 279.5t161 279.5h541l82 -559l14 -10q4 0 15 -1t24.5 0t24 4t12.5 9q0 6 -6.5 56.5t-16.5 125t-23.5 161.5t-25.5 166t-21.5 140.5t-11.5 81.5l-90 658q43 16 72.5 55t38.5 80q14 61 -21 103t-96 42q-59 0 -110.5 -42 t-65.5 -103q-10 -41 3 -79t48 -56q-29 -53 -79 -140t-111.5 -193.5t-131 -226.5t-136 -237t-129 -223.5t-108.5 -187t-75 -130t-29 -51.5zM381 649l395 686l96 -686h-491zM737 1536q8 35 37 60.5t66 25.5q35 0 53 -25.5t10 -60.5h-2q-8 -37 -34.5 -61.5t-65.5 -24.5 q-37 0 -54.5 25.5t-9.5 60.5z" />
<glyph unicode="&#xc6;" horiz-adv-x="1617" d="M-49 10q0 -10 14 -10h60l16 10l469 711h321l-143 -705l10 -16q322 0 645 -6l19 16q2 6 6 19.5t6 26t0 21.5t-12 9q-143 0 -286.5 -4t-287.5 -4l132 643h305h49q27 0 51 -2q8 -2 15.5 -3t7.5 -3q18 0 22 16l10 51l-12 17h-432q31 143 59.5 285.5t57.5 285.5h565l22 62 l-12 16h-713l-16 -10q-14 -20 -61 -92t-116 -174.5t-153 -227.5t-170 -253t-165.5 -249t-142 -215t-101.5 -152.5t-39 -62.5zM559 797q94 143 189.5 285.5t187.5 285.5h29q-29 -143 -57.5 -285.5t-59.5 -285.5h-289z" />
<glyph unicode="&#xc7;" horiz-adv-x="1366" d="M119.5 461q5.5 -129 56.5 -227.5t150.5 -162t253.5 -77.5q-16 -23 -29.5 -45.5t-20.5 -46.5q-4 -14 5.5 -25.5t23.5 -20t29.5 -14.5t25.5 -10l-2 2q10 -4 25.5 -10t29 -15.5t20.5 -21.5t5 -27q-8 -41 -43 -55t-69 -14q-29 0 -50.5 7t-37 16.5t-25.5 16.5t-16 7 q-14 0 -19 -17l-12 -57l6 -14q29 -16 66.5 -24.5t72.5 -8.5t71 8t66.5 25.5t53 45.5t30.5 68q6 35 -3 54.5t-26.5 33t-40 23.5t-40.5 25h2l-72 24q4 16 14.5 32.5t20.5 33.5q55 -2 121.5 2t134.5 15t133.5 27.5t122.5 41.5l14 14q0 4 3.5 15.5t5.5 23.5t1 21.5t-8 9.5 q-6 0 -10 -2q-123 -35 -232.5 -65t-232.5 -30q-152 0 -254 51.5t-157.5 142.5t-66.5 214t20 266q33 152 92 271.5t150 202.5t214 126t283 43q66 0 114 -5t91 -16t87 -25.5t99 -33.5q4 -2 6 -1t6 1q12 0 17 15l12 63l-6 13q-94 41 -198.5 53t-213.5 12q-360 0 -565 -185.5 t-279 -533.5q-31 -147 -25.5 -276z" />
<glyph unicode="&#xc8;" horiz-adv-x="888" d="M-102 16l12 -16q164 0 324.5 -1t324.5 -5l19 16q2 8 6 21.5t6 27t0 22.5t-12 9q-70 0 -141.5 -5t-141.5 -5h-141q-39 0 -77 1t-77 1l133 629h297q59 0 116.5 -4.5t117.5 -4.5q18 0 22 17l12 55l-14 17h-534l122 575h297q66 0 127.5 -4t126.5 -4q16 0 21 16l12 56l-12 16 h-627l-18 -16q-147 -707 -301 -1414zM375 1952q0 -2 12 -35t31.5 -81t43 -104.5t45 -106.5t37 -87t19.5 -47l12 -8q10 0 31 -1t25 15q0 2 -10.5 35t-25.5 81t-33.5 104.5t-35 106.5t-29 88t-16.5 48l-14 8h-72q-16 0 -20 -16z" />
<glyph unicode="&#xc9;" horiz-adv-x="888" d="M-100 16l12 -16q164 0 324.5 -1t324.5 -5l21 16q2 8 6 21.5t5 27t-1 22.5t-12 9q-70 0 -140.5 -5t-140.5 -5h-141q-39 0 -78 1t-78 1l133 629h297q43 0 86 -4.5t86 -4.5q18 0 23 17l12 55l-12 17h-473l120 575h297q66 0 127.5 -4t126.5 -4q16 0 21 16l12 56l-10 16h-627 l-20 -16q-147 -707 -301 -1414zM393 1511q-4 -16 17 -16h34l13 6q10 10 45 44t81 81t98 98.5t95 96.5t72 74.5t31 33.5q4 14 -13 15h-73l-13 -7q-8 -10 -39.5 -43.5t-74.5 -80t-90.5 -98.5t-87 -96t-66.5 -75t-29 -33z" />
<glyph unicode="&#xca;" horiz-adv-x="1054" d="M14 16l11 -16q162 0 324.5 -1t326.5 -5l18 16q2 8 6.5 21.5t6.5 27t0 22.5t-15 9q-70 0 -140.5 -5t-141.5 -5h-140q-39 0 -76.5 1t-78.5 1l133 629h297q59 0 117.5 -4.5t117.5 -4.5q16 0 21 17l12 55l-12 17h-535l121 575h297q63 0 125.5 -4t128.5 -4q6 0 13 4t10 12 l12 56l-15 16h-626l-19 -16q-74 -356 -148.5 -706.5t-150.5 -707.5zM221 1481q-4 -14 17 -15h55l420 324l282 -324q16 0 41 -0.5t35 15.5q0 4 -18.5 29.5t-47 63.5t-64.5 81t-66.5 83t-55 68.5t-31.5 36.5q-4 4 -12 4h-104l-445 -354z" />
<glyph unicode="&#xcb;" horiz-adv-x="888" d="M-68 16l13 -16q164 0 324.5 -1t322.5 -5l20 16q2 8 6.5 21.5t5.5 27t-1 22.5t-13 9q-70 0 -140.5 -5t-139.5 -5h-142q-39 0 -76.5 1t-76.5 1l133 629h297q59 0 116.5 -4.5t116.5 -4.5q18 0 23 17l10 55l-12 17h-535l123 575h297q66 0 127.5 -4t126.5 -4q16 0 21 16l10 56 l-10 16h-627l-21 -16q-72 -356 -146.5 -706.5t-152.5 -707.5zM328 1534l14 -16h88l19 16l20 92l-12 16h-88l-21 -16zM680 1534l14 -16h88l19 16l20 90l-14 16h-88l-19 -16z" />
<glyph unicode="&#xcc;" horiz-adv-x="557" d="M98 16l13 -16h53l20 16l301 1414l-14 16h-53l-19 -16zM307 1931q-2 -4 11.5 -35.5t33 -80t43 -104.5t45 -106.5t37 -88t19.5 -48.5l12 -8q8 0 28.5 -0.5t24.5 15.5q0 2 -10 34.5t-25.5 80.5t-34 104.5t-35 106.5t-28.5 87t-16 47l-13 9h-71q-4 0 -12.5 -3.5t-8.5 -9.5z " />
<glyph unicode="&#xcd;" horiz-adv-x="600" d="M61 16l13 -16h55l18 16l302 1414l-13 16h-55l-19 -16zM213 1473q-4 -16 12 -17h37l12 6q10 10 45 44t81 80l98.5 98.5l96.5 96.5t72.5 74.5t28.5 34.5q4 14 -12 15h-72l-16 -7q-8 -10 -40 -43.5t-75 -81t-89 -98.5t-86 -95t-66.5 -74.5t-26.5 -32.5z" />
<glyph unicode="&#xce;" horiz-adv-x="1054" d="M223 1479q-4 -6 1 -10.5t12 -4.5h57q106 80 210.5 162t209.5 164l282 -326q16 0 41 -0.5t35 15.5q0 4 -18.5 29.5t-48 63.5t-64.5 82t-66.5 83t-55 68.5t-30.5 37.5q-4 4 -10 4h-104l-445 -356zM293 16l12 -16h55l21 16l301 1414l-14 16h-56l-18 -16z" />
<glyph unicode="&#xcf;" horiz-adv-x="675" d="M133 16l12 -16h56l18 16l301 1414l-12 16h-55l-19 -16zM250 1505l12 -16h88l19 16l20 92l-12 17h-88l-19 -17zM602 1505l14 -16h89l16 16l20 90l-10 17h-88l-20 -17z" />
<glyph unicode="&#xd0;" horiz-adv-x="284" d="M59 563l13 -16h47l20 18l86 402l-12 16h-47l-21 -18z" />
<glyph unicode="&#xd1;" horiz-adv-x="1306" d="M-78 16l15 -16h53l20 16q66 324 133.5 641.5t135.5 640.5q162 -328 328.5 -648t332.5 -644l10 -6h54l20 16l301 1414l-16 16h-58l-18 -16l-266 -1285q-158 330 -324 650.5t-332 644.5l-12 6h-57l-19 -16zM391 1606q-4 -10 5.5 -23.5t15.5 -21.5l12 -7q4 0 24.5 15.5 t51 34t67.5 34t74 15.5q51 0 98 -14.5t94.5 -32t95.5 -31.5t101 -14q57 0 126 27.5t118 68.5l6 20l-18 37l-11 8q-6 0 -22.5 -14t-43 -30.5t-62.5 -31t-79 -14.5q-51 0 -98 15.5t-94 33t-95 33t-102 15.5q-16 0 -58 -12.5t-86 -31t-80 -40t-40 -39.5z" />
<glyph unicode="&#xd2;" d="M26.5 441q12.5 -136 73 -237.5t173 -158.5t282.5 -57q166 0 301 59t239.5 160.5t174 237.5t102.5 292q35 164 24.5 297t-70.5 226.5t-175 144.5t-287 51t-307 -51t-236.5 -144.5t-169 -226.5t-102.5 -297q-35 -160 -22.5 -296zM120 482q-9 122 19 255q31 141 88.5 259 t144.5 204t205.5 133t272.5 47q152 0 250 -47t148 -133t57.5 -204t-23.5 -259h-2q-29 -133 -88 -255t-149.5 -215t-209 -148.5t-266.5 -55.5q-145 0 -241.5 55.5t-146.5 148.5t-59 215zM748 1966q-2 -4 10 -37t31.5 -81t43 -104t45 -106.5t38 -87.5t20.5 -47l12 -8h37 q17 0 21 16q0 2 -10.5 35t-26 81t-35 104.5t-36.5 106.5t-29.5 87t-16.5 47l-14 8h-72q-14 0 -18 -14z" />
<glyph unicode="&#xd3;" d="M30.5 441q12.5 -136 73 -237.5t173 -158.5t282.5 -57q166 0 301 59t239.5 160.5t174 237.5t102.5 292q35 164 25 297t-70.5 226.5t-175.5 144.5t-287 51t-307 -51t-236.5 -144.5t-169 -226.5t-102.5 -297q-35 -160 -22.5 -296zM124 482q-9 122 19 255q31 141 88.5 259 t144.5 204t205.5 133t272.5 47q152 0 250 -47t148.5 -133t57.5 -204t-24 -259h-2q-29 -133 -88 -255t-149.5 -215t-209 -148.5t-266.5 -55.5q-145 0 -241.5 55.5t-146.5 148.5t-59 215zM727 1511q-4 -16 14 -16h35l15 6q8 8 41.5 43t79.5 82t98.5 98.5t96.5 95.5t72.5 74.5 t28.5 32.5q4 16 -14 17h-72l-14 -7q-8 -10 -40 -43.5t-74 -80t-89 -98.5t-86 -96t-65.5 -75t-26.5 -33z" />
<glyph unicode="&#xd4;" d="M39.5 441q11.5 -136 73 -237.5t173 -158.5t281.5 -57q166 0 302.5 59t239.5 160.5t173.5 237.5t103.5 292q35 164 25 297t-70.5 226.5t-175 144.5t-286.5 51t-307.5 -51t-237 -144.5t-169 -226.5t-102.5 -297q-35 -160 -23.5 -296zM134 482q-9 122 20 255q31 141 88 259 t144 204t206 133t272 47q152 0 250 -47t148.5 -133t57.5 -204t-24 -259h-2q-29 -133 -88 -255t-149 -215t-209 -148.5t-266 -55.5q-145 0 -241.5 55.5t-147 148.5t-59.5 215zM473 1483q0 -14 14 -15h58q104 80 208.5 162t213.5 164l280 -326q16 0 41 -0.5t35 15.5 q0 4 -18.5 29.5t-47 63.5t-63.5 82t-66.5 83t-55 68.5t-32.5 37.5q-4 4 -10 4h-106l-443 -356z" />
<glyph unicode="&#xd5;" d="M58.5 441q11.5 -136 73 -237.5t173 -158.5t281.5 -57q166 0 302 59t239.5 160.5t174 237.5t103.5 292q35 164 24.5 297t-72 226.5t-176 144.5t-286.5 51t-307 -51t-236.5 -144.5t-168 -226.5t-101.5 -297q-35 -160 -23.5 -296zM152.5 482q-9.5 122 19.5 255 q31 141 88 259t144.5 204t206 133t272.5 47q152 0 250 -47t148 -133t57.5 -204t-23.5 -259h-2q-29 -133 -88.5 -255t-149.5 -215t-208.5 -148.5t-266.5 -55.5q-145 0 -241.5 55.5t-146.5 148.5t-59.5 215zM524 1550q6 -10 12.5 -25.5t18.5 -15.5l17 15q18 16 45.5 34.5 t61.5 34t66 15.5q45 0 87 -14.5t83 -32t83 -31.5t89 -14q53 0 113 28.5t103 69.5l6 20q-4 8 -10.5 23.5t-14.5 19.5q-4 0 -18.5 -14t-39 -30.5t-56 -31t-68.5 -14.5q-45 0 -86 15.5t-82 33t-83 32.5t-89 15q-57 0 -123 -35.5t-111 -78.5z" />
<glyph unicode="&#xd6;" d="M62.5 441q11.5 -136 73 -237.5t173 -158.5t281.5 -57q166 0 302 59t239.5 160.5t174 237.5t103.5 292q35 164 24.5 297t-70.5 226.5t-175 144.5t-287 51t-307 -51t-236.5 -144.5t-169 -226.5t-102.5 -297q-35 -160 -23.5 -296zM156.5 482q-9.5 122 19.5 255 q31 141 88.5 259t144.5 204t205.5 133t272.5 47q152 0 250 -47t148 -133t57.5 -204t-23.5 -259h-2q-29 -133 -88.5 -255t-149.5 -215t-208.5 -148.5t-266.5 -55.5q-145 0 -241.5 55.5t-146.5 148.5t-59.5 215zM680 1532l12 -16h90l19 16l18 92l-12 16h-90l-19 -16z M1032 1532l15 -16h90l18 16l19 90l-13 16h-90l-20 -16z" />
<glyph unicode="&#xd7;" horiz-adv-x="1024" />
<glyph unicode="&#xd8;" d="M2 14q-4 -14 12 -14h66l14 6l121 125q35 -33 81 -59.5t99.5 -45t108.5 -28.5t108 -10q166 0 302.5 58t239.5 159.5t172 238t104 293.5q12 63 19 145.5t1 164t-30.5 152.5t-73.5 112q6 6 24.5 23.5t37.5 38t34.5 38t17.5 21.5q2 6 -3 10t-11 4h-64l-12 -6l-80 -82 q-35 25 -79 43t-93 30.5t-100 18.5t-96 6q-172 0 -308.5 -50t-238 -144.5t-168 -226.5t-101.5 -298q-14 -68 -21 -141.5t-1 -146t25.5 -139t56.5 -117.5q-8 -8 -34 -35t-54.5 -56.5t-52 -55.5t-23.5 -32zM180 617.5q4 62.5 17 119.5q31 141 88 260t144 204t206 132t272 47 q86 0 172.5 -18.5t149.5 -69.5h-2l-989 -1026q-23 47 -37.5 105.5t-19.5 121t-1 125zM279 201l1003 1040q33 -45 50.5 -107.5t23.5 -131t0.5 -137.5t-17.5 -128h-2q-29 -133 -88 -255t-148 -215t-208 -148.5t-266 -55.5q-49 0 -99.5 8.5t-96.5 25t-86 42t-66 62.5z" />
<glyph unicode="&#xd9;" horiz-adv-x="1277" d="M20 290q9 -97 55 -165t132 -102.5t221 -34.5q125 0 225.5 39t179 108.5t134 166.5t88.5 214q61 217 110 434t97 434l10 46l-12 16h-58l-20 -16l-11 -46q-47 -217 -93 -434t-111 -434q-29 -96 -75 -178t-110.5 -142.5t-148.5 -95t-189 -34.5q-115 0 -185.5 31.5t-107 90 t-43 142.5t6.5 188q29 227 78 454.5t96 457.5l-13 16h-57l-20 -16l-13 -58q-47 -215 -89 -429t-70 -429q-16 -127 -7 -224zM637 1950q0 -2 12.5 -35t31.5 -81t43 -104.5t45.5 -106.5t36.5 -87t19 -47l13 -8h36q15 0 19 14q0 2 -9.5 35t-24.5 81t-34.5 104.5t-36 106.5 t-28.5 88t-17 48l-12 8h-72q-18 0 -22 -16z" />
<glyph unicode="&#xda;" horiz-adv-x="1277" d="M22 290q9 -97 55 -165t132 -102.5t221 -34.5q125 0 225.5 39t179 108.5t134 166.5t88.5 214q61 217 110.5 434t96.5 434l10 46l-12 16h-58l-20 -16l-10 -46q-47 -217 -93.5 -434t-111.5 -434q-29 -96 -75 -178t-110.5 -142.5t-148.5 -95t-189 -34.5q-115 0 -185.5 31.5 t-107 90t-43 142.5t6.5 188q29 227 77 454.5t97 457.5l-12 16h-58l-20 -16l-13 -58q-47 -215 -89 -429t-70 -429q-16 -127 -7 -224zM606 1516q-4 -16 12 -17h37l15 6l43 43l82 82t98 98.5t95 95.5t73 74.5t29 32.5q4 16 -13 17h-71l-17 -6q-8 -10 -39.5 -44t-73.5 -80 t-89.5 -98.5t-87.5 -96.5t-66.5 -74.5t-26.5 -32.5z" />
<glyph unicode="&#xdb;" horiz-adv-x="1277" d="M32 290q9 -97 55 -165t132 -102.5t221 -34.5q125 0 225.5 39t179.5 108.5t134 166.5t88 214q61 217 110.5 434t96.5 434l10 46l-12 16h-58l-20 -16l-10 -46q-47 -217 -93.5 -434t-111.5 -434q-29 -96 -75 -178t-110.5 -142.5t-148.5 -95t-188 -34.5q-115 0 -185.5 31.5 t-107.5 90t-43 142.5t6 188q29 227 78 454.5t96 457.5l-12 16h-58l-20 -16l-12 -58q-45 -215 -88 -429t-72 -429q-16 -127 -7 -224zM342 1483q-4 -14 12 -15h60q104 80 208.5 161t211.5 163l282 -324q16 0 41 -0.5t35 15.5q0 4 -18.5 29.5t-48 63.5t-64.5 81t-66.5 83 t-55.5 68.5t-30 36.5q-8 4 -10 4h-106l-443 -354z" />
<glyph unicode="&#xdc;" horiz-adv-x="1277" d="M54 290q9 -97 55.5 -165t132.5 -102.5t221 -34.5q125 0 225 39t179 108.5t134.5 166.5t88.5 214q61 217 110 434t96 434l11 46l-13 16h-57l-20 -16l-11 -46q-47 -217 -93 -434t-112 -434q-29 -96 -74.5 -178t-110 -142.5t-148.5 -95t-189 -34.5q-115 0 -185.5 31.5 t-107 90t-43 142.5t6.5 188q29 227 76.5 454.5t97.5 457.5l-13 16h-57l-21 -16l-12 -58q-47 -215 -89 -429t-71 -429q-16 -127 -7 -224zM555 1532l10 -16h88l21 16l18 92l-12 16h-88l-19 -16zM907 1532l13 -16h88l18 16l18 90l-10 16h-88l-20 -16z" />
<glyph unicode="&#xdd;" horiz-adv-x="1024" />
<glyph unicode="&#xde;" horiz-adv-x="1024" />
<glyph unicode="&#xdf;" horiz-adv-x="929" d="M-47 16l14 -16h56l20 16l231 1090q10 49 27.5 98t47.5 88t73 63.5t102 24.5q37 0 65.5 -18.5t48 -48t27 -65.5t-0.5 -70q-10 -45 -43 -75t-73 -61.5t-76 -74.5t-50 -113q-18 -84 -3 -133t47 -82t72 -58.5t70.5 -61.5t45 -90t-4.5 -144q-23 -96 -94.5 -159t-169.5 -63 q-31 0 -57.5 8.5t-52 18.5t-50 19.5t-53.5 13.5l-18 -17l-13 -63l9 -16q49 -20 105 -29.5t116 -9.5q135 0 235.5 79.5t128.5 217.5q23 104 10.5 170.5t-42 109.5t-68.5 72t-72 57.5t-50 64.5t-5 95q12 57 46 91t73 63.5t74 66.5t49 103q12 55 0.5 105t-39 88t-72.5 61.5 t-100 23.5q-84 0 -143.5 -27.5t-101.5 -74.5t-68.5 -110.5t-41.5 -137.5z" />
<glyph unicode="&#xe0;" horiz-adv-x="917" d="M-12 160.5q10 -54.5 40.5 -92t81 -59t115.5 -21.5q117 0 213.5 57t167.5 160l-39 -189l13 -16h49l20 16l144 680q18 86 8 140.5t-46 87t-94.5 45t-136.5 12.5q-37 0 -80 -5t-87 -15.5t-87 -26.5t-80 -37l-8 -14q-2 -6 -6 -18.5t-6 -27t-1 -24.5t9 -10q4 0 35 16.5 t78 35.5t104.5 35.5t114.5 16.5q55 0 98 -10t70 -33.5t35 -64.5t-4 -103l-23 -110q-86 2 -194.5 1t-211 -29t-182.5 -91.5t-106 -185.5q-14 -66 -4 -120.5zM80 198q-6 40 4 83q16 76 59 123t101.5 73.5t125 34.5t130.5 8h84t84 -4h-2q-4 -27 -11.5 -53.5t-15.5 -52.5 q-18 -68 -56 -130.5t-90.5 -111.5t-117 -78t-137.5 -29q-45 0 -78 18.5t-53.5 48.5t-26.5 70zM442 1597q0 -2 12.5 -34.5t32 -80.5t43 -104.5t45 -106.5t37 -87t19.5 -47l12 -9q8 0 28.5 -0.5t24.5 15.5q0 2 -9 34.5t-24.5 81t-35 104.5t-36 106.5t-29.5 88t-15 48.5l-15 8 h-71q-14 0 -19 -17z" />
<glyph unicode="&#xe1;" horiz-adv-x="917" d="M-8 160.5q10 -54.5 40.5 -92t81 -59t115.5 -21.5q117 0 213.5 57t167.5 160l-39 -189l13 -16h49l20 16l144 680q18 86 8 140.5t-46 87t-94.5 45t-136.5 12.5q-37 0 -79.5 -5t-87 -15.5t-87.5 -26.5t-79 -37l-11 -14q0 -6 -4 -18.5t-6 -27t-1 -24.5t9 -10q4 0 35 16.5 t78 35.5t104.5 35.5t114.5 16.5q55 0 98 -10t70 -33.5t35 -64.5t-4 -103l-23 -110q-86 2 -194.5 1t-211 -29t-182 -91.5t-106.5 -185.5q-14 -66 -4 -120.5zM84 198q-6 40 4 83q16 76 59 123t101.5 73.5t125 34.5t130.5 8h84t84 -4h-2q-4 -27 -11.5 -53.5t-15.5 -52.5 q-18 -68 -56 -130.5t-90.5 -111.5t-117 -78t-137.5 -29q-45 0 -78 18.5t-53.5 48.5t-26.5 70zM383 1145q-4 -16 14 -17h35l14 7q10 10 44 43.5t80 81t97.5 98.5t95.5 96t71.5 76t29.5 35q2 12 -14 12h-72l-14 -6q-8 -10 -40 -44t-74 -80t-89 -98.5t-86 -96.5t-65.5 -74.5 t-26.5 -32.5z" />
<glyph unicode="&#xe2;" horiz-adv-x="1054" d="M27 160.5q10 -54.5 40.5 -92t80 -59t114.5 -21.5q117 0 214 56t167 161l-39 -189l12 -16h52l18 16l143 680q18 86 8 140.5t-45.5 87t-94 45t-134.5 12.5q-37 0 -80 -5t-87 -15.5t-87 -26.5t-78 -37l-8 -14q-2 -6 -6 -18.5t-6 -27t-1 -24.5t9 -10q2 0 33 16.5t77 35.5 t103 35.5t115 16.5q55 0 98 -10t69.5 -33.5t35 -64.5t-4.5 -103l-22 -110q-86 2 -194.5 1t-211 -29t-181.5 -91.5t-105 -185.5q-14 -66 -4 -120.5zM119 198q-6 40 4 83q16 76 59 123t101.5 72.5t125 34.5t128.5 9h84q43 0 86 -4q-8 -27 -14.5 -53.5t-12.5 -52.5 q-18 -68 -57 -131.5t-91.5 -111.5t-117 -77t-138.5 -29q-45 0 -77.5 18.5t-53 48.5t-26.5 70zM188 1147q-6 -16 13 -17h55l422 328l283 -328q16 0 40.5 -1.5t34.5 18.5q0 4 -18.5 30.5t-47 64.5t-63.5 81t-66.5 83t-55 68.5t-29.5 36.5q-8 4 -13 5h-104l-444 -357z" />
<glyph unicode="&#xe3;" horiz-adv-x="987" d="M10 160.5q10 -54.5 41 -92t81 -59t116 -21.5q115 0 213 56t170 161l-41 -189l12 -16h51l17 16l145 680q18 86 7 140.5t-46 87t-93 45t-136 12.5q-37 0 -80 -5t-87 -15.5t-87 -26.5t-78 -37l-8 -14q-2 -6 -5 -18.5t-5 -27t-1 -24.5t9 -10q2 0 32.5 16.5t76.5 35.5 t103.5 35.5t114.5 16.5q55 0 99.5 -10t71 -33.5t34.5 -64.5t-4 -103l-24 -110q-84 2 -193.5 1t-212 -29t-182.5 -91.5t-107 -185.5q-14 -66 -4 -120.5zM103.5 198q-7.5 40 2.5 83q16 76 59.5 123t102 72.5t126 34.5t128.5 9h84t86 -4h-2q-8 -27 -13 -53.5t-13 -52.5 q-18 -68 -56.5 -131.5t-90.5 -111.5t-116.5 -77t-138.5 -29q-45 0 -77.5 18.5t-53 48.5t-28 70zM240 1264q4 -4 12 -22.5t10 -18.5q8 0 26.5 15t45 33.5t59.5 34t68 15.5q45 0 87 -14.5t83 -33t83 -32.5t89 -14q53 0 112.5 28.5t102.5 69.5l6 21q-4 10 -8 27.5t-19 17.5 q-4 0 -18 -14.5t-39 -32t-55.5 -32t-67.5 -14.5q-45 0 -86 15.5t-81 33t-83 33t-90 15.5q-57 0 -120.5 -33t-110.5 -76z" />
<glyph unicode="&#xe4;" horiz-adv-x="917" d="M23 160.5q10 -54.5 40.5 -92t81 -59t115.5 -21.5q117 0 213 57t168 160l-39 -189l12 -16h50l20 16l143 680q18 86 8 140.5t-45.5 87t-94 45t-136.5 12.5q-37 0 -80 -5t-87 -15.5t-87 -26.5t-80 -37l-8 -14q-2 -6 -6 -18.5t-6 -27t-1 -24.5t9 -10q4 0 35 16.5t78 35.5 t104 35.5t115 16.5q55 0 98 -10t69.5 -33.5t35 -64.5t-4.5 -103l-22 -110q-86 2 -194.5 1t-211 -29t-182.5 -91.5t-106 -185.5q-14 -66 -4 -120.5zM115 198q-6 40 4 83q16 76 59 123t101.5 73.5t125 34.5t130.5 8h83q43 0 84 -4h-2q-4 -27 -11 -53.5t-15 -52.5 q-18 -68 -56 -130.5t-90.5 -111.5t-117 -78t-138.5 -29q-45 0 -77.5 18.5t-53 48.5t-26.5 70zM342 1178l12 -17h90l19 17l20 92l-14 16h-90l-17 -16zM694 1178l13 -17h88l20 17l19 90l-15 16h-88l-18 -16z" />
<glyph unicode="&#xe5;" horiz-adv-x="917" d="M20 281q-29 -131 36 -212t196 -81q117 0 214 57t169 160l-41 -189l12 -16h49l21 16l145 680q18 86 7 140.5t-47 87t-94 45t-136 12.5q-37 0 -80 -5t-87 -15.5t-87 -26.5t-80 -37l-8 -14q0 -6 -4 -18.5t-6 -27t-1 -24.5t9 -10q4 0 34.5 16.5t78 35.5t104.5 35.5t115 16.5 q55 0 98 -10t69.5 -33.5t35 -64.5t-4.5 -103l-24 -110q-57 2 -125 2t-139.5 -6.5t-141 -23.5t-128 -52t-100.5 -89.5t-59 -135.5zM108.5 198q-6.5 40 4.5 83q16 76 59 123t100.5 73.5t124 34.5t129.5 8h84t86 -4q-8 -27 -14 -53.5t-14 -52.5q-20 -68 -58.5 -130.5 t-90.5 -111.5t-115.5 -78t-137.5 -29q-45 0 -77.5 18.5t-53 48.5t-27 70zM446 1194q-14 -70 23 -116t109 -46q68 0 123 47t69 115q16 68 -21.5 114t-105.5 46q-33 0 -64.5 -12.5t-58 -34t-46 -51t-28.5 -62.5zM516 1194q10 41 42 68.5t73 27.5t61 -27.5t10 -68.5h-2 q-8 -41 -38.5 -68.5t-73.5 -27.5q-41 0 -60.5 27.5t-11.5 68.5z" />
<glyph unicode="&#xe6;" horiz-adv-x="1638" d="M57 279q-27 -129 34 -210t190 -81q131 0 247.5 74.5t178.5 201.5q23 -139 120 -207.5t242 -68.5q37 0 79 5t86 14t87 23.5t78 32.5l10 15q0 4 4 16t6 25.5t1 24t-9 10.5q-2 0 -32.5 -14.5t-78 -32t-103.5 -32t-112 -14.5q-92 0 -154.5 31t-97 86t-43 130t10.5 161l10 45 q180 -2 356 0t357 10l20 17q4 16 8.5 30.5t8.5 28.5q18 86 6.5 156.5t-50 122t-102 79t-151.5 27.5q-111 0 -214.5 -48t-189.5 -140q-6 45 -31.5 79.5t-61.5 59.5t-81 37t-90 12q-80 0 -177 -29.5t-173 -76.5l-10 -13q0 -6 -3.5 -16t-4.5 -20.5t0 -18.5t10 -8q4 0 35.5 17.5 t79.5 37t107.5 36.5t119.5 17q111 0 161 -49t25 -166l-25 -110q-86 8 -193.5 6t-207.5 -31t-178 -95.5t-105 -186.5zM141 279q16 76 60.5 124t102.5 74.5t125 35.5t128 9q88 0 168 -6q-18 -80 -50 -162t-82 -146.5t-123 -105.5t-173 -41q-94 0 -134 63.5t-22 154.5zM825 584 q20 66 63.5 125t102 104t125 71.5t131.5 26.5q72 0 120 -24.5t74.5 -67.5t34 -100t-2.5 -123q-324 -12 -648 -12z" />
<glyph unicode="&#xe7;" horiz-adv-x="980" d="M124.5 306q2.5 -93 37.5 -161.5t106.5 -110.5t186.5 -46q-14 -20 -26.5 -42t-16.5 -44q-4 -14 5 -25.5t22.5 -20t28.5 -14.5t26 -10v2q10 -4 24 -10t27.5 -15.5t21.5 -21.5t6 -27q-10 -41 -43.5 -55t-68.5 -14q-27 0 -49.5 7t-39 16.5t-27.5 16.5t-15 7q-12 0 -17 -17 l-12 -57l2 -14q29 -16 68 -24.5t73 -8.5q35 0 71 8t66.5 25.5t53 45.5t31.5 68q6 29 -3.5 50.5t-27 39t-40 29t-44.5 17.5h2l-68 24q4 16 14.5 32.5t20.5 33.5q66 4 148 22.5t147 50.5l12 15q4 16 11.5 41.5t-9.5 34.5l-31 -14q-32 -15 -80 -32.5t-107.5 -32t-116.5 -14.5 q-98 0 -159 37t-90.5 98.5t-31.5 142.5t16 169q18 86 56.5 160.5t93.5 128t129 84t166 30.5q45 0 91 -10t84 -23.5t64.5 -23.5t34.5 -10q12 0 17 14l12 64l-6 14q-59 25 -135 37t-146 12q-111 0 -201 -33.5t-158.5 -97t-115.5 -152t-70 -194.5q-23 -109 -20.5 -202z" />
<glyph unicode="&#xe8;" horiz-adv-x="1007" d="M19 302q1 -97 38 -166.5t114 -108.5t204 -39q37 0 79 5t85 14t85 23.5t76 32.5l13 15q0 6 4 18.5t6 24.5t1 22.5t-9 10.5q-4 0 -35 -14.5t-77 -32t-102.5 -32t-111.5 -14.5q-96 0 -156.5 33t-91 89.5t-35 133t14.5 166.5q176 0 351 5.5t353 11.5l19 16q20 92 21 176 t-26.5 149.5t-90 104.5t-168.5 39t-195.5 -35t-158 -96t-116 -147t-67.5 -189q-25 -119 -24 -216zM137 559q18 76 57 141.5t95.5 111.5t126 72.5t147.5 26.5q70 0 116 -28.5t70.5 -76.5t29.5 -109t-7 -122q-147 -10 -289.5 -13t-285.5 -3h-60zM496 1597q0 -2 12 -34.5 t31.5 -80.5t43 -104.5t45 -106.5t37 -87t19.5 -47l12 -9q10 0 30 -0.5t24 15.5q0 2 -9.5 34.5t-25 81t-33.5 104.5t-34.5 106.5t-30 88t-15.5 48.5l-14 8h-72q-16 0 -20 -17z" />
<glyph unicode="&#xe9;" horiz-adv-x="1007" d="M23.5 302q1.5 -97 38 -166.5t113.5 -108.5t204 -39q37 0 79 5t85 14t85 23.5t77 32.5l12 15q0 6 4 18.5t6 24.5t1 22.5t-9 10.5q-4 0 -35 -14.5t-77 -32t-102 -32t-112 -14.5q-96 0 -156.5 33t-91 89.5t-35 133t14.5 166.5q176 0 351 5.5t353 11.5l19 16q20 92 21 176 t-26.5 149.5t-90 104.5t-168.5 39t-195.5 -35t-158 -96t-115.5 -147t-68 -189q-25 -119 -23.5 -216zM141 559q18 76 57.5 141.5t95.5 111.5t125.5 72.5t147.5 26.5q70 0 116 -28.5t70.5 -76.5t29.5 -109t-7 -122q-147 -10 -289.5 -13t-285.5 -3h-60zM449 1145q-4 -16 12 -17 h37l14 7q10 10 45 43.5t81 81t97 98.5t94 96t72 76t31 35q2 12 -14 12h-72l-15 -6q-8 -10 -39.5 -44t-74.5 -80t-89 -98.5t-86 -96.5t-66.5 -73.5t-26.5 -33.5z" />
<glyph unicode="&#xea;" horiz-adv-x="1073" d="M29.5 303q1.5 -98 38 -167.5t112.5 -108.5t203 -39q72 0 164 18.5t164 56.5l10 15q2 6 5 18.5t5 24.5t1 22.5t-9 10.5q-2 0 -34 -14.5t-79 -32t-103 -32t-110 -14.5q-96 0 -156.5 33t-91 90.5t-33.5 134t13 164.5q176 0 351 5.5t354 11.5l20 16q18 92 19 176t-26.5 149.5 t-90 104.5t-168.5 39t-195.5 -35t-157 -96t-114.5 -147t-68 -189q-25 -117 -23.5 -215zM145 559q18 76 58.5 141.5t95.5 111.5t125 72.5t149 26.5q72 0 117 -28.5t68.5 -76.5t27.5 -109t-4 -122q-147 -10 -290.5 -13t-286.5 -3h-60zM205 1147q-4 -16 12 -17h57l422 328 l281 -328q16 0 42 -1.5t36 18.5q0 4 -18.5 30.5t-47 64.5t-63.5 81t-67 83t-55.5 68.5t-29.5 36.5q-8 4 -12 5h-107l-442 -357z" />
<glyph unicode="&#xeb;" horiz-adv-x="1007" d="M54 302q1 -97 38 -166.5t114 -108.5t204 -39q37 0 78.5 5t84.5 14t85 23.5t77 32.5l13 15q0 6 4 18.5t6 24.5t1 22.5t-9 10.5q-4 0 -35 -14.5t-77 -32t-102.5 -32t-111.5 -14.5q-96 0 -156.5 33t-91.5 89.5t-35 133t15 166.5q176 0 351 5.5t353 11.5l19 16q20 92 21 176 t-26.5 149.5t-90 104.5t-169.5 39q-106 0 -195 -35t-157.5 -96t-116 -147t-67.5 -189q-25 -119 -24 -216zM172 559q18 76 57 141.5t95.5 111.5t126 72.5t147.5 26.5q70 0 116 -28.5t70.5 -76.5t29.5 -109t-7 -122q-147 -10 -289.5 -13t-286.5 -3h-59zM389 1178l10 -17h90 l21 17l20 92l-14 16h-90l-16 -16zM741 1178l11 -17h88l20 17l19 90l-13 16h-88l-18 -16z" />
<glyph unicode="&#xec;" horiz-adv-x="557" d="M90 16l12 -16h54l20 16l199 938l-13 17h-53l-20 -17zM270 1597q0 -2 12.5 -34.5t32 -80.5t43 -104.5t45 -106.5t37 -87t19.5 -47l12 -9q10 0 30.5 -0.5t24.5 15.5q0 2 -9 34.5t-24.5 81t-35 104.5t-35.5 106.5t-28.5 88t-16.5 48.5l-12 8h-72q-18 0 -23 -17z" />
<glyph unicode="&#xed;" horiz-adv-x="600" d="M74 16l14 -16h53l19 16l198 938l-12 17h-53l-21 -17zM178 1145q-4 -16 15 -17h36l13 7q10 10 45 43.5t81 81t98 98.5t95 96t72 76t31 35q0 12 -15 12h-71l-17 -6q-8 -10 -40 -44t-73.5 -80t-89 -98.5t-87.5 -96.5t-66.5 -74.5t-26.5 -32.5z" />
<glyph unicode="&#xee;" horiz-adv-x="1054" d="M184 1147q-4 -16 17 -17h55l422 328l283 -328q16 0 39.5 -1.5t33.5 18.5q0 4 -18.5 30.5t-47 64.5t-63.5 81t-66.5 83t-56 68.5t-30.5 36.5q-4 4 -11 5h-104l-444 -357zM285 16l14 -16h53l19 16l198 938l-12 17h-53l-21 -17z" />
<glyph unicode="&#xef;" horiz-adv-x="677" d="M154 16l12 -16h55l21 16l198 938l-14 17h-55l-19 -17zM215 1178l14 -17h88l17 17l20 92l-12 16h-88l-18 -16zM567 1178l17 -17h88l16 17l21 90l-13 16h-88l-20 -16z" />
<glyph unicode="&#xf0;" horiz-adv-x="335" d="M92 4l14 -16h97l20 16l21 98l-15 17h-96l-20 -17z" />
<glyph unicode="&#xf1;" horiz-adv-x="1011" d="M-43 16l16 -16h52l18 16l137 643q12 53 56.5 98.5t101.5 79t118.5 52t108.5 18.5q61 0 112.5 -16.5t85.5 -50t46 -82.5t-2 -117l-133 -625l14 -16h51l17 16l133 625q18 90 4 154.5t-55 105.5t-107.5 60.5t-152.5 19.5q-100 0 -197.5 -44t-173.5 -130l26 147l-14 17h-43 l-18 -17zM262 1264q2 -4 11.5 -22.5t11.5 -18.5q8 0 26.5 15t45 33.5t59.5 34t67 15.5q45 0 87 -14.5t83 -33t82 -32.5t88 -14q53 0 114.5 28.5t102.5 69.5l7 21q-4 10 -8.5 27.5t-16.5 17.5q-4 0 -19.5 -14.5t-40 -32t-56.5 -32t-68 -14.5q-45 0 -86 15.5t-81 33t-83 33 t-90 15.5q-57 0 -121 -33t-111 -76z" />
<glyph unicode="&#xf2;" horiz-adv-x="1112" d="M22.5 288.5q8.5 -91.5 51.5 -158.5t120.5 -104.5t192.5 -37.5t207 37.5t162.5 104.5t117.5 158.5t70 200.5q25 113 18.5 205t-48.5 156.5t-119.5 99.5t-198.5 35q-240 0 -376 -133t-183 -363q-23 -109 -14.5 -200.5zM108.5 325.5q-6.5 77.5 12.5 163.5q18 90 56 168 t95.5 134.5t134 88t175.5 31.5q98 0 161.5 -31.5t95 -89t35.5 -134.5t-14 -167h-2q-18 -86 -56 -163.5t-96.5 -136t-135 -93.5t-171.5 -35q-94 0 -156.5 35t-95 93.5t-39 136zM532 1597q0 -2 12.5 -34.5t32 -80.5t43 -104.5t45 -106.5t37 -87t19.5 -47l12 -9q8 0 28.5 -0.5 t24.5 15.5q0 2 -9 34.5t-24.5 81t-35 104.5t-35.5 106.5t-28.5 88t-16.5 48.5l-14 8h-72q-14 0 -19 -17z" />
<glyph unicode="&#xf3;" horiz-adv-x="1112" d="M26.5 288.5q8.5 -91.5 51.5 -158.5t120.5 -104.5t192.5 -37.5t207 37.5t162.5 104.5t117.5 158.5t70 200.5q25 113 19 205t-48 156.5t-120 99.5t-199 35q-240 0 -376 -133t-183 -363q-23 -109 -14.5 -200.5zM112.5 325.5q-6.5 77.5 12.5 163.5q18 90 56 168t95.5 134.5 t134 88t175.5 31.5q98 0 160.5 -31.5t95 -89t36.5 -134.5t-14 -167h-2q-18 -86 -56 -163.5t-96.5 -136t-135 -93.5t-171.5 -35q-94 0 -156.5 35t-95 93.5t-39 136zM498 1145q-4 -16 14 -17h37l14 7q10 10 44 43.5t80 81t97.5 98.5t95.5 96t71.5 76t29.5 35q2 12 -14 12h-72 l-14 -6q-8 -10 -40 -44t-75 -80t-89 -98.5t-86 -96.5t-66.5 -73.5t-26.5 -33.5z" />
<glyph unicode="&#xf4;" horiz-adv-x="1112" d="M34.5 288.5q8.5 -91.5 51.5 -158.5t120 -104.5t191 -37.5q115 0 207 37.5t163 104.5t117.5 158.5t69.5 200.5q25 113 19 205t-47 156.5t-119 99.5t-199 35q-240 0 -376 -133t-183 -363q-23 -109 -14.5 -200.5zM121 325.5q-6 77.5 12 163.5q18 90 56 168t95.5 134.5 t134.5 88t175 31.5t160.5 -31.5t95.5 -89t35.5 -134.5t-15.5 -167q-18 -86 -57 -163.5t-96.5 -136t-134 -93.5t-170.5 -35t-156.5 35t-95.5 93.5t-39 136zM188 1147q-6 -16 13 -17h57q106 84 211.5 165t210.5 163l281 -328q16 0 41.5 -1.5t35.5 18.5q0 4 -18.5 30.5 t-47 64.5t-63.5 81t-66.5 83t-55 68.5t-29.5 36.5q-8 4 -13 5h-106l-444 -357z" />
<glyph unicode="&#xf5;" horiz-adv-x="1112" d="M44.5 288.5q8.5 -91.5 51.5 -158.5t121 -104.5t193 -37.5t207 37.5t162.5 104.5t117.5 158.5t70 200.5q25 113 18.5 205t-47.5 156.5t-119 99.5t-198 35q-240 0 -376 -133t-186 -363q-23 -109 -14.5 -200.5zM131 325.5q-6 77.5 12 163.5q18 90 56.5 168t95.5 134.5 t135 88t176 31.5t160.5 -31.5t95.5 -89t36 -134.5t-15 -167h-2q-18 -86 -56.5 -163.5t-95.5 -136t-134 -93.5t-171 -35t-156.5 35t-96.5 93.5t-40 136zM289 1262l20 -35l21 2q35 35 85 63.5t95 28.5t87 -14.5t84 -33t83 -32.5t88 -14q53 0 113.5 28.5t103.5 69.5l6 21 q-4 10 -8 27.5t-16 17.5q-4 0 -19.5 -14.5t-40 -32t-56.5 -32t-69 -14.5q-45 0 -86 15.5t-81 33t-83 33t-90 15.5q-57 0 -121.5 -34t-109.5 -75z" />
<glyph unicode="&#xf6;" horiz-adv-x="1112" d="M57.5 288.5q8.5 -91.5 51.5 -158.5t120.5 -104.5t192.5 -37.5t207 37.5t162.5 104.5t117.5 158.5t70 200.5q25 113 18.5 205t-48.5 156.5t-119.5 99.5t-198.5 35q-240 0 -376 -133t-183 -363q-23 -109 -14.5 -200.5zM143.5 325.5q-6.5 77.5 12.5 163.5q18 90 56 168 t95.5 134.5t134 88t174.5 31.5t162 -31.5t95.5 -89t35.5 -134.5t-14 -167h-2q-18 -86 -56 -163.5t-96.5 -136t-135.5 -93.5t-171 -35t-156.5 35t-95 93.5t-39 136zM424 1178l14 -17h90l17 17l20 92l-12 16h-90l-19 -16zM778 1178l15 -17h88l18 17l19 90l-13 16h-88l-20 -16z " />
<glyph unicode="&#xf7;" horiz-adv-x="837" d="M96 719l13 -17h602l18 17l10 49l-12 16h-602l-19 -16zM287 449l14 -17h96l17 17l20 98l-10 16h-96l-21 -16zM393 946l15 -14h96l18 14l21 98l-13 17h-96l-20 -17z" />
<glyph unicode="&#xf8;" horiz-adv-x="1112" d="M47 14q-4 -14 12 -14h54l12 6q14 16 32.5 32.5t35.5 33.5q49 -37 120.5 -60.5t139.5 -23.5q115 0 208 37.5t162.5 105.5t116.5 159t70 199q8 43 14 96.5t3 105.5t-16.5 99.5t-41.5 77.5q6 6 20.5 19.5t29.5 28t27.5 28t12.5 19.5q4 14 -12 14h-54l-14 -6l-55 -58 q-47 35 -121 53.5t-139 18.5q-240 0 -376 -133t-186 -363q-10 -43 -14 -94t0 -101t17.5 -95t41.5 -76q-6 -6 -21 -21.5t-32.5 -34t-32 -34t-14.5 -19.5zM177 333.5q-7 84.5 9 155.5q18 90 56.5 168t95.5 134.5t135 88t176 31.5q57 0 113.5 -14t97.5 -49h-2l-647 -660 q-27 61 -34 145.5zM254 135q164 166 324.5 332t324.5 332q31 -61 35 -148.5t-12 -161.5h-2q-18 -86 -56.5 -163.5t-95.5 -136t-134 -93.5t-171 -35q-57 0 -117.5 16.5t-95.5 57.5z" />
<glyph unicode="&#xf9;" horiz-adv-x="989" d="M0 231.5q4 -73.5 35 -128t91 -85t153 -30.5q121 0 222 56t177 161l-37 -189l12 -16h47l21 16l199 938l-13 17h-53l-18 -17q-29 -137 -60 -272t-59 -272q-14 -72 -56.5 -135.5t-100.5 -110.5t-128 -75t-139 -28q-74 0 -118 27t-65.5 73t-23.5 104.5t12 123.5l127 565 q0 12 -10 17h-53l-21 -17q-35 -141 -65.5 -282.5t-61.5 -282.5q-18 -84 -14 -157.5zM481 1597q0 -2 12.5 -34.5t32 -80.5t43 -104.5t45 -106.5t37 -87t19.5 -47l12 -9q10 0 29.5 -0.5t23.5 15.5q0 2 -9 34.5t-24.5 81t-34 104.5t-35 106.5t-29.5 88t-15 48.5l-15 8h-71 q-16 0 -21 -17z" />
<glyph unicode="&#xfa;" horiz-adv-x="989" d="M4 231.5q4 -73.5 35 -128t91 -85t153 -30.5q121 0 222 56t177 161l-37 -189l12 -16h48l20 16l199 938l-13 17h-53l-18 -17q-29 -137 -59.5 -272t-59.5 -272q-14 -72 -56 -135.5t-100.5 -110.5t-128 -75t-139.5 -28q-74 0 -119 27t-66.5 73t-22.5 104.5t13 123.5l127 565 q0 12 -10 17h-53l-21 -17q-35 -141 -65.5 -282.5t-61.5 -282.5q-18 -84 -14 -157.5zM428 1145q-4 -16 12 -17h37l15 7q10 10 44.5 43.5t81 81t97.5 98.5t94 96t71.5 76t30.5 35q2 12 -14 12h-72l-14 -6q-8 -10 -40 -44t-74 -80t-89 -98.5t-87 -96.5t-66.5 -74.5t-26.5 -32.5 z" />
<glyph unicode="&#xfb;" horiz-adv-x="1052" d="M16.5 231.5q3.5 -73.5 34.5 -128t90.5 -85t153.5 -30.5q119 0 220 56t177 161l-35 -189l13 -16h45l20 16l199 938l-12 17h-52l-20 -17q-29 -137 -58.5 -272t-58.5 -272q-16 -72 -57 -134.5t-99.5 -110.5t-128 -76t-139.5 -28q-74 0 -118 27t-65.5 73t-22.5 104.5 t12 123.5q6 25 17 72t25.5 103.5t29 117.5t26.5 115.5t20.5 96.5t8.5 60q0 16 -13 17h-53l-18 -17q-35 -141 -66 -282.5t-61 -282.5q-18 -84 -14.5 -157.5zM188 1147q-6 -16 13 -17h55l422 328l280 -328q16 0 41 -1.5t35 18.5q0 4 -18.5 30.5t-47 64.5t-63.5 81t-65.5 83 t-54 68.5t-29.5 36.5q-8 4 -13 5h-104l-444 -357z" />
<glyph unicode="&#xfc;" horiz-adv-x="989" d="M35 231.5q4 -73.5 34.5 -128t91 -85t152.5 -30.5q121 0 222.5 56t177.5 161l-37 -189l12 -16h47l21 16l198 938l-12 17h-53l-19 -17q-29 -137 -59.5 -272t-58.5 -272q-14 -72 -56.5 -135.5t-100.5 -110.5t-128 -75t-139 -28q-74 0 -118 27t-65.5 73t-23.5 104.5t12 123.5 l127 565q0 12 -10 17h-53l-21 -17q-35 -141 -65.5 -282.5t-61.5 -282.5q-18 -84 -14 -157.5zM365 1178l12 -17h90l18 17l21 92l-12 16h-91l-18 -16zM717 1178l12 -17h88l19 17l18 90l-10 16h-88l-21 -16z" />
<glyph unicode="&#xfd;" horiz-adv-x="1024" />
<glyph unicode="&#xfe;" horiz-adv-x="1024" />
<glyph unicode="&#xff;" horiz-adv-x="1118" d="M129 -397q-2 -6 4 -8.5t10 -2.5h62l16 9q12 20 58.5 87.5t112 166t145 217t161.5 240.5t159 238t136.5 206t96 145.5t36.5 59.5q2 4 -4 7t-10 3h-63l-17 -10q-137 -213 -275.5 -423t-279.5 -423l-174 846l-12 10q-4 0 -16.5 1t-25.5 0t-23.5 -4t-12.5 -10 q-2 -4 11.5 -69.5t32.5 -163.5t44 -214t46.5 -219.5t37.5 -179t21 -94.5q-6 -10 -30 -43.5t-53.5 -79t-63.5 -94.5t-62.5 -92t-48 -72.5t-19.5 -33.5zM465 1178l12 -17h90l19 17l18 92l-10 16h-90l-21 -16zM819 1178l12 -17h89l20 17l18 90l-12 16h-88l-20 -16z" />
<glyph unicode="&#x152;" horiz-adv-x="2117" d="M82.5 442q11.5 -137 72 -238.5t173 -158.5t280.5 -57q184 0 351 84t286 250l-63 -306l12 -16q164 0 324.5 1t322.5 -7l21 16q2 8 6 20.5t6 25t0 21.5t-12 13q-59 -4 -119 -7t-119 -3q-86 0 -170 1t-170 1l133 629h307h27q20 0 44 -1t44.5 -3t26.5 -5q18 0 22 17l10 55 l-12 17h-452l122 575h297q66 0 128.5 -4t127.5 -4q16 0 21 16l10 56l-12 16h-627l-20 -16l-56 -269q-25 84 -73.5 141.5t-114.5 91t-146.5 48t-170.5 14.5q-172 0 -307.5 -51t-237 -144.5t-168 -226.5t-101.5 -297q-35 -158 -23.5 -295zM177 482q-9 122 20 255 q31 141 87 259t143 204t205 133t271 47q154 0 251 -47t147.5 -133t57.5 -204t-24 -259q-29 -133 -88 -255t-148 -215t-208 -148.5t-266 -55.5q-145 0 -241.5 55.5t-147 148.5t-59.5 215z" />
<glyph unicode="&#x153;" horiz-adv-x="1830" d="M87.5 288.5q8.5 -91.5 51.5 -158.5t121 -104.5t193 -37.5q135 0 258 62.5t204 191.5q8 -68 39 -116t78 -79t108.5 -45t129.5 -14q72 0 161 20.5t160 54.5l13 15q0 6 3 18.5t5 24.5t1 22.5t-9 10.5q-4 0 -34 -14.5t-75 -32t-100.5 -32t-110.5 -14.5q-98 0 -159.5 32 t-92.5 88.5t-35 134t13 167.5q178 4 352 6.5t352 10.5l21 16q18 90 20 174t-25.5 149.5t-89 105.5t-167.5 40q-131 0 -252 -57.5t-199 -182.5q-35 111 -135.5 175.5t-222.5 64.5q-240 0 -376 -133t-186 -363q-23 -109 -14.5 -200.5zM174 323.5q-6 77.5 12 165.5 q18 90 56.5 168t95.5 134.5t135 88t176 31.5t161.5 -31.5t95.5 -88t36 -134.5t-14 -168h-2q-18 -86 -56.5 -163.5t-96.5 -136t-135 -93.5t-171 -35t-156.5 34t-96.5 92.5t-40 136zM1026 559q16 76 57 140.5t99.5 111.5t130 73.5t147.5 26.5q74 0 119 -28.5t67.5 -74.5 t25.5 -108t-9 -125h-2q-158 0 -316.5 -8t-318.5 -8z" />
<glyph unicode="&#x178;" horiz-adv-x="1046" d="M233.5 1436q-2.5 -6 11 -63.5t33 -141.5t44 -183.5t46 -189.5t39 -157.5t21.5 -88.5l-125 -596l10 -16h60l20 16l127 600q12 16 57.5 83t106.5 156t130 188.5t126 185.5t96 143.5t39 63.5q2 4 -4 7t-10 3h-53l-17 -10q-125 -184 -249 -365.5t-246 -365.5l-172 731l-13 10 q-4 0 -16 1t-25.5 0t-23.5 -3t-12.5 -8zM430 1532l12 -16h88l19 16l18 92l-10 16h-88l-20 -16zM782 1532l13 -16h88l18 16l19 92l-11 16h-88l-20 -16z" />
<glyph unicode="&#x2c6;" horiz-adv-x="1054" d="M66 1147q-4 -16 14 -17h55l422 328l283 -328q16 0 40.5 -1.5t34.5 18.5q0 4 -18 30.5t-48 64.5t-64.5 81t-66.5 83t-55.5 68.5t-29.5 36.5q-4 4 -12 5h-105l-444 -357z" />
<glyph unicode="&#x2dc;" horiz-adv-x="1077" d="M96 1278q0 -4 2 -13.5t7.5 -18.5t9.5 -16t6 -7q8 0 29.5 15t51 33.5t66.5 34t74 15.5q51 0 99 -14.5t96.5 -33t95.5 -32.5t100 -14q59 0 127 28.5t117 69.5l6 21l-16 38l-11 9q-6 0 -23.5 -14.5t-44 -33t-61 -33t-77.5 -14.5q-53 0 -100.5 15.5t-94.5 33t-95 33 t-102 15.5q-16 0 -57 -11.5t-85 -28t-80 -38t-40 -39.5z" />
<glyph unicode="&#x2000;" horiz-adv-x="990" />
<glyph unicode="&#x2001;" horiz-adv-x="1980" />
<glyph unicode="&#x2002;" horiz-adv-x="990" />
<glyph unicode="&#x2003;" horiz-adv-x="1980" />
<glyph unicode="&#x2004;" horiz-adv-x="660" />
<glyph unicode="&#x2005;" horiz-adv-x="495" />
<glyph unicode="&#x2006;" horiz-adv-x="330" />
<glyph unicode="&#x2007;" horiz-adv-x="330" />
<glyph unicode="&#x2008;" horiz-adv-x="247" />
<glyph unicode="&#x2009;" horiz-adv-x="396" />
<glyph unicode="&#x200a;" horiz-adv-x="110" />
<glyph unicode="&#x2010;" horiz-adv-x="641" d="M98 586l15 -17h401l21 17l8 47l-15 16h-401l-21 -16z" />
<glyph unicode="&#x2011;" horiz-adv-x="641" d="M98 586l15 -17h401l21 17l8 47l-15 16h-401l-21 -16z" />
<glyph unicode="&#x2012;" horiz-adv-x="641" d="M98 586l15 -17h401l21 17l8 47l-15 16h-401l-21 -16z" />
<glyph unicode="&#x2013;" horiz-adv-x="835" d="M98 723l11 -16h602l18 16l8 47l-10 16h-602l-19 -16z" />
<glyph unicode="&#x2014;" horiz-adv-x="1439" d="M98 723l15 -16h1200l20 16l8 47l-14 16h-1200l-21 -16z" />
<glyph unicode="&#x2018;" horiz-adv-x="403" d="M57 1135q-2 -14 15 -15h71l19 10q4 10 19.5 45t36 81.5t43 97.5t40.5 95t31.5 75t13.5 35q4 16 -14 16h-37l-19 -12q-4 -8 -21 -43t-41 -82t-51.5 -99.5t-51 -97.5t-39 -74.5t-15.5 -31.5z" />
<glyph unicode="&#x2019;" horiz-adv-x="440" d="M55 1135q0 -14 17 -15h37l16 10q6 8 27.5 44t50 84.5t60.5 101.5t58.5 99t45 77t18.5 33q0 14 -14 14h-72l-18 -12q-4 -8 -22.5 -44t-43.5 -83t-53.5 -101.5t-52 -99.5t-39 -75.5t-15.5 -32.5z" />
<glyph unicode="&#x201a;" horiz-adv-x="440" d="M55 -193q0 -14 17 -14h37l16 10q6 8 26.5 44t49 83t60.5 101.5t58.5 99.5t45 76t18.5 33q4 16 -12 16h-72l-18 -12q-4 -8 -22.5 -44t-43.5 -83t-53.5 -101.5t-52 -99.5t-39 -75.5t-15.5 -33.5z" />
<glyph unicode="&#x201c;" horiz-adv-x="608" d="M57 1135q-2 -14 15 -15h71l19 10q4 8 19.5 43t36 80t43 97.5t43 95.5t33.5 72.5t13 33.5q0 16 -14 17h-35l-18 -13q-4 -8 -22.5 -41.5t-43 -79.5t-52.5 -98.5t-51.5 -96.5t-40 -73.5t-16.5 -31.5zM258 1135q-2 -14 14 -15h72l18 10q4 8 19.5 43t36 80t43 97.5t43 95.5 t33 72.5t14.5 33.5q0 16 -14 17h-37l-17 -13q-4 -8 -22.5 -41.5t-43 -79.5t-52 -98.5t-51 -96.5t-40 -73.5t-16.5 -31.5z" />
<glyph unicode="&#x201d;" horiz-adv-x="620" d="M57 1137q-4 -16 15 -17h37l18 10q4 8 23.5 43t46 83.5t55.5 101.5t53.5 98t40.5 76t16 33q4 16 -14 16h-72l-18 -12q-4 -8 -20.5 -43t-39 -82t-47 -100.5t-45 -98.5t-35 -75.5t-14.5 -32.5zM258 1137q-4 -16 14 -17h35l19 10q4 8 23.5 43t46 83.5t56 101.5t54 98t41 76 t16.5 33q4 16 -14 16h-72l-18 -12q-4 -8 -20.5 -43t-39 -82t-47 -100.5t-45 -98.5t-35 -75.5t-14.5 -32.5z" />
<glyph unicode="&#x201e;" horiz-adv-x="620" d="M57 -197q-4 -16 15 -16h37l18 10q4 8 23.5 44t45 83t55.5 100.5t54.5 98.5t40.5 75.5t16 32.5q4 16 -14 17h-72l-18 -12q-4 -8 -20.5 -43t-39 -82.5t-47 -100.5t-45 -98t-35 -76t-14.5 -33zM258 -197q-4 -16 14 -16h35l19 10q4 8 23.5 44t46 83t56 100.5t54 98.5t41 75.5 t16.5 32.5q4 16 -14 17h-72l-18 -12q-4 -8 -20.5 -43t-39 -82.5t-47 -100.5t-45 -98t-35 -76t-14.5 -33z" />
<glyph unicode="&#x2022;" horiz-adv-x="526" d="M102 711q-16 -70 21 -115t106 -45q68 0 124.5 46t70.5 114t-22.5 114.5t-104.5 46.5t-124 -47t-71 -114z" />
<glyph unicode="&#x2026;" horiz-adv-x="1394" d="M92 4l12 -16h97l18 16l21 98l-13 17h-96l-18 -17zM623 4l14 -16h94l19 16l20 98l-12 17h-94l-21 -17zM1153 4l14 -16h97l18 16l21 98l-13 17h-96l-20 -17z" />
<glyph unicode="&#x202f;" horiz-adv-x="396" />
<glyph unicode="&#x2039;" horiz-adv-x="614" d="M101 741.5q-1 -10.5 3 -16.5l283 -356l10 -7q8 0 15.5 8.5t13.5 19.5t11 21.5t7 14.5l-4 16l-254 308l385 301l9 16l-2 51l-15 12q-6 0 -37.5 -24.5t-78 -61t-100.5 -80.5t-102 -84t-85 -71t-47 -39l-7 -10q-4 -8 -5 -18.5z" />
<glyph unicode="&#x203a;" horiz-adv-x="616" d="M35 424l10 -49l12 -10q4 0 36 24.5t78 61t100.5 82t102.5 85t85 69.5t47 38q0 4 3 6t3 6l4 23l-4 10l-285 354l-10 6q-16 -2 -27.5 -26.5t-19.5 -36.5l4 -16l260 -303l-391 -306z" />
<glyph unicode="&#x205f;" horiz-adv-x="495" />
<glyph unicode="&#x20ac;" horiz-adv-x="1452" d="M68 555l10 -16h88q-10 -274 136.5 -412.5t422.5 -138.5q47 0 109.5 6t127 17.5t127 27.5t111.5 37l12 14q2 4 5.5 15.5t5.5 23.5t1 21.5t-7 9.5t-13 -2q-121 -35 -230.5 -65t-232.5 -30q-233 0 -358 124t-123 352h911l19 16l10 49l-12 17h-926q4 29 9 58.5t12 57.5 q6 33 14 66t18 65h926l19 17l10 49l-10 16h-912q98 231 271.5 330.5t400.5 99.5q115 0 205 -22.5t188 -57.5q4 -2 6 -1t6 1q12 0 17 15l12 63l-8 13q-92 41 -196.5 53t-213.5 12q-133 0 -250.5 -27.5t-218 -88t-179.5 -157t-132 -233.5h-90l-19 -16l-10 -49l10 -17h78 q-39 -127 -53 -247h-78l-16 -17z" />
<glyph unicode="&#x2122;" horiz-adv-x="1554" d="M168 1368q2 -8 12 -8q49 0 100.5 3t100.5 3l-137 -643l14 -16h51l19 16l137 643h78q6 0 29.5 -2t48 -3t45 2t22.5 13l12 54l-14 16h-489l-17 -16q-2 -6 -6 -18.5t-6 -24t0 -19.5zM578 723l14 -16h53l17 16l118 555l170 -563l15 -8h22l14 8l412 573l-121 -565l15 -16h53 l16 16l152 707l-12 16h-64l-14 -8q-109 -147 -214.5 -294t-213.5 -294l-195 588l-12 8h-55l-19 -16z" />
<glyph unicode="&#x25fc;" horiz-adv-x="972" d="M0 0v973h973v-973h-973z" />
</font>
</defs>
</svg>
